<svg width="1250.7" height="1098.9" xmlns="http://www.w3.org/2000/svg" xmlns:xlink="http://www.w3.org/1999/xlink"><line x1="483.5" y1="7.0" x2="455.25" y2="31.0" style="stroke:black; stroke-width:1px;" />
<line x1="455.25" y1="38.0" x2="119.75" y2="62.0" style="stroke:black; stroke-width:1px;" />
<line x1="119.75" y1="69.0" x2="119.75" y2="93.0" style="stroke:black; stroke-width:1px;" />
<line x1="119.75" y1="100.0" x2="98.5" y2="124.0" style="stroke:black; stroke-width:1px;" />
<line x1="98.5" y1="131.0" x2="51.5" y2="155.0" style="stroke:black; stroke-width:1px;" />
<line x1="51.5" y1="162.0" x2="51.5" y2="186.0" style="stroke:black; stroke-width:1px;" />
<line x1="51.5" y1="193.0" x2="51.5" y2="217.0" style="stroke:black; stroke-width:1px;" />
<line x1="51.5" y1="224.0" x2="51.5" y2="248.0" style="stroke:black; stroke-width:1px;" />
<line x1="51.5" y1="255.0" x2="51.5" y2="279.0" style="stroke:black; stroke-width:1px;" />
<line x1="51.5" y1="286.0" x2="51.5" y2="310.0" style="stroke:black; stroke-width:1px;" />
<line x1="51.5" y1="317.0" x2="51.5" y2="341.0" style="stroke:black; stroke-width:1px;" />
<line x1="51.5" y1="348.0" x2="51.5" y2="372.0" style="stroke:black; stroke-width:1px;" />
<line x1="51.5" y1="379.0" x2="51.5" y2="403.0" style="stroke:black; stroke-width:1px;" />
<line x1="98.5" y1="131.0" x2="145.5" y2="155.0" style="stroke:black; stroke-width:1px;" />
<line x1="145.5" y1="162.0" x2="113.0" y2="186.0" style="stroke:black; stroke-width:1px;" />
<line x1="145.5" y1="162.0" x2="178.0" y2="186.0" style="stroke:black; stroke-width:1px;" />
<line x1="178.0" y1="193.0" x2="178.0" y2="217.0" style="stroke:black; stroke-width:1px;" />
<line x1="178.0" y1="224.0" x2="178.0" y2="248.0" style="stroke:black; stroke-width:1px;" />
<line x1="178.0" y1="255.0" x2="178.0" y2="279.0" style="stroke:black; stroke-width:1px;" />
<line x1="178.0" y1="286.0" x2="178.0" y2="310.0" style="stroke:black; stroke-width:1px;" />
<line x1="178.0" y1="317.0" x2="178.0" y2="341.0" style="stroke:black; stroke-width:1px;" />
<line x1="178.0" y1="348.0" x2="178.0" y2="372.0" style="stroke:black; stroke-width:1px;" />
<line x1="178.0" y1="379.0" x2="178.0" y2="403.0" style="stroke:black; stroke-width:1px;" />
<line x1="178.0" y1="410.0" x2="178.0" y2="434.0" style="stroke:black; stroke-width:1px;" />
<line x1="178.0" y1="441.0" x2="178.0" y2="465.0" style="stroke:black; stroke-width:1px;" />
<line x1="119.75" y1="100.0" x2="141.0" y2="124.0" style="stroke:black; stroke-width:1px;" />
<line x1="455.25" y1="38.0" x2="393.15625" y2="62.0" style="stroke:black; stroke-width:1px;" />
<line x1="393.15625" y1="69.0" x2="393.15625" y2="93.0" style="stroke:black; stroke-width:1px;" />
<line x1="393.15625" y1="100.0" x2="270.0" y2="124.0" style="stroke:black; stroke-width:1px;" />
<line x1="393.15625" y1="100.0" x2="295.5" y2="124.0" style="stroke:black; stroke-width:1px;" />
<line x1="295.5" y1="131.0" x2="295.5" y2="155.0" style="stroke:black; stroke-width:1px;" />
<line x1="295.5" y1="162.0" x2="295.5" y2="186.0" style="stroke:black; stroke-width:1px;" />
<line x1="295.5" y1="193.0" x2="242.0" y2="217.0" style="stroke:black; stroke-width:1px;" />
<line x1="242.0" y1="224.0" x2="242.0" y2="248.0" style="stroke:black; stroke-width:1px;" />
<line x1="242.0" y1="255.0" x2="242.0" y2="279.0" style="stroke:black; stroke-width:1px;" />
<line x1="242.0" y1="286.0" x2="242.0" y2="310.0" style="stroke:black; stroke-width:1px;" />
<line x1="242.0" y1="317.0" x2="242.0" y2="341.0" style="stroke:black; stroke-width:1px;" />
<line x1="295.5" y1="193.0" x2="295.5" y2="217.0" style="stroke:black; stroke-width:1px;" />
<line x1="295.5" y1="193.0" x2="349.0" y2="217.0" style="stroke:black; stroke-width:1px;" />
<line x1="349.0" y1="224.0" x2="349.0" y2="248.0" style="stroke:black; stroke-width:1px;" />
<line x1="349.0" y1="255.0" x2="349.0" y2="279.0" style="stroke:black; stroke-width:1px;" />
<line x1="349.0" y1="286.0" x2="349.0" y2="310.0" style="stroke:black; stroke-width:1px;" />
<line x1="349.0" y1="317.0" x2="349.0" y2="341.0" style="stroke:black; stroke-width:1px;" />
<line x1="349.0" y1="348.0" x2="349.0" y2="372.0" style="stroke:black; stroke-width:1px;" />
<line x1="393.15625" y1="100.0" x2="404.40625" y2="124.0" style="stroke:black; stroke-width:1px;" />
<line x1="393.15625" y1="100.0" x2="516.3125" y2="124.0" style="stroke:black; stroke-width:1px;" />
<line x1="516.3125" y1="131.0" x2="411.25" y2="155.0" style="stroke:black; stroke-width:1px;" />
<line x1="516.3125" y1="131.0" x2="422.25" y2="155.0" style="stroke:black; stroke-width:1px;" />
<line x1="516.3125" y1="131.0" x2="446.25" y2="155.0" style="stroke:black; stroke-width:1px;" />
<line x1="446.25" y1="162.0" x2="446.25" y2="186.0" style="stroke:black; stroke-width:1px;" />
<line x1="446.25" y1="193.0" x2="425.0" y2="217.0" style="stroke:black; stroke-width:1px;" />
<line x1="425.0" y1="224.0" x2="425.0" y2="248.0" style="stroke:black; stroke-width:1px;" />
<line x1="425.0" y1="255.0" x2="425.0" y2="279.0" style="stroke:black; stroke-width:1px;" />
<line x1="425.0" y1="286.0" x2="425.0" y2="310.0" style="stroke:black; stroke-width:1px;" />
<line x1="425.0" y1="317.0" x2="425.0" y2="341.0" style="stroke:black; stroke-width:1px;" />
<line x1="425.0" y1="348.0" x2="425.0" y2="372.0" style="stroke:black; stroke-width:1px;" />
<line x1="425.0" y1="379.0" x2="425.0" y2="403.0" style="stroke:black; stroke-width:1px;" />
<line x1="425.0" y1="410.0" x2="397.5" y2="434.0" style="stroke:black; stroke-width:1px;" />
<line x1="397.5" y1="441.0" x2="397.5" y2="465.0" style="stroke:black; stroke-width:1px;" />
<line x1="425.0" y1="410.0" x2="452.5" y2="434.0" style="stroke:black; stroke-width:1px;" />
<line x1="452.5" y1="441.0" x2="452.5" y2="465.0" style="stroke:black; stroke-width:1px;" />
<line x1="452.5" y1="472.0" x2="421.5" y2="496.0" style="stroke:black; stroke-width:1px;" />
<line x1="452.5" y1="472.0" x2="452.5" y2="496.0" style="stroke:black; stroke-width:1px;" />
<line x1="452.5" y1="503.0" x2="452.5" y2="527.0" style="stroke:black; stroke-width:1px;" />
<line x1="452.5" y1="534.0" x2="452.5" y2="558.0" style="stroke:black; stroke-width:1px;" />
<line x1="452.5" y1="565.0" x2="452.5" y2="589.0" style="stroke:black; stroke-width:1px;" />
<line x1="452.5" y1="596.0" x2="452.5" y2="620.0" style="stroke:black; stroke-width:1px;" />
<line x1="452.5" y1="627.0" x2="452.5" y2="651.0" style="stroke:black; stroke-width:1px;" />
<line x1="452.5" y1="658.0" x2="452.5" y2="682.0" style="stroke:black; stroke-width:1px;" />
<line x1="452.5" y1="689.0" x2="452.5" y2="713.0" style="stroke:black; stroke-width:1px;" />
<line x1="452.5" y1="472.0" x2="483.5" y2="496.0" style="stroke:black; stroke-width:1px;" />
<line x1="446.25" y1="193.0" x2="467.5" y2="217.0" style="stroke:black; stroke-width:1px;" />
<line x1="516.3125" y1="131.0" x2="597.375" y2="155.0" style="stroke:black; stroke-width:1px;" />
<line x1="597.375" y1="162.0" x2="597.375" y2="186.0" style="stroke:black; stroke-width:1px;" />
<line x1="597.375" y1="193.0" x2="512.0" y2="217.0" style="stroke:black; stroke-width:1px;" />
<line x1="597.375" y1="193.0" x2="537.5" y2="217.0" style="stroke:black; stroke-width:1px;" />
<line x1="537.5" y1="224.0" x2="537.5" y2="248.0" style="stroke:black; stroke-width:1px;" />
<line x1="537.5" y1="255.0" x2="537.5" y2="279.0" style="stroke:black; stroke-width:1px;" />
<line x1="537.5" y1="286.0" x2="484.0" y2="310.0" style="stroke:black; stroke-width:1px;" />
<line x1="484.0" y1="317.0" x2="484.0" y2="341.0" style="stroke:black; stroke-width:1px;" />
<line x1="484.0" y1="348.0" x2="484.0" y2="372.0" style="stroke:black; stroke-width:1px;" />
<line x1="484.0" y1="379.0" x2="484.0" y2="403.0" style="stroke:black; stroke-width:1px;" />
<line x1="484.0" y1="410.0" x2="484.0" y2="434.0" style="stroke:black; stroke-width:1px;" />
<line x1="537.5" y1="286.0" x2="537.5" y2="310.0" style="stroke:black; stroke-width:1px;" />
<line x1="537.5" y1="286.0" x2="591.0" y2="310.0" style="stroke:black; stroke-width:1px;" />
<line x1="591.0" y1="317.0" x2="591.0" y2="341.0" style="stroke:black; stroke-width:1px;" />
<line x1="591.0" y1="348.0" x2="591.0" y2="372.0" style="stroke:black; stroke-width:1px;" />
<line x1="591.0" y1="379.0" x2="591.0" y2="403.0" style="stroke:black; stroke-width:1px;" />
<line x1="591.0" y1="410.0" x2="591.0" y2="434.0" style="stroke:black; stroke-width:1px;" />
<line x1="591.0" y1="441.0" x2="591.0" y2="465.0" style="stroke:black; stroke-width:1px;" />
<line x1="597.375" y1="193.0" x2="608.625" y2="217.0" style="stroke:black; stroke-width:1px;" />
<line x1="597.375" y1="193.0" x2="682.75" y2="217.0" style="stroke:black; stroke-width:1px;" />
<line x1="682.75" y1="224.0" x2="653.25" y2="248.0" style="stroke:black; stroke-width:1px;" />
<line x1="682.75" y1="224.0" x2="664.25" y2="248.0" style="stroke:black; stroke-width:1px;" />
<line x1="682.75" y1="224.0" x2="688.25" y2="248.0" style="stroke:black; stroke-width:1px;" />
<line x1="688.25" y1="255.0" x2="688.25" y2="279.0" style="stroke:black; stroke-width:1px;" />
<line x1="688.25" y1="286.0" x2="667.0" y2="310.0" style="stroke:black; stroke-width:1px;" />
<line x1="667.0" y1="317.0" x2="667.0" y2="341.0" style="stroke:black; stroke-width:1px;" />
<line x1="667.0" y1="348.0" x2="667.0" y2="372.0" style="stroke:black; stroke-width:1px;" />
<line x1="667.0" y1="379.0" x2="667.0" y2="403.0" style="stroke:black; stroke-width:1px;" />
<line x1="667.0" y1="410.0" x2="667.0" y2="434.0" style="stroke:black; stroke-width:1px;" />
<line x1="667.0" y1="441.0" x2="667.0" y2="465.0" style="stroke:black; stroke-width:1px;" />
<line x1="667.0" y1="472.0" x2="667.0" y2="496.0" style="stroke:black; stroke-width:1px;" />
<line x1="667.0" y1="503.0" x2="639.5" y2="527.0" style="stroke:black; stroke-width:1px;" />
<line x1="639.5" y1="534.0" x2="639.5" y2="558.0" style="stroke:black; stroke-width:1px;" />
<line x1="667.0" y1="503.0" x2="694.5" y2="527.0" style="stroke:black; stroke-width:1px;" />
<line x1="694.5" y1="534.0" x2="694.5" y2="558.0" style="stroke:black; stroke-width:1px;" />
<line x1="694.5" y1="565.0" x2="663.5" y2="589.0" style="stroke:black; stroke-width:1px;" />
<line x1="694.5" y1="565.0" x2="694.5" y2="589.0" style="stroke:black; stroke-width:1px;" />
<line x1="694.5" y1="596.0" x2="694.5" y2="620.0" style="stroke:black; stroke-width:1px;" />
<line x1="694.5" y1="627.0" x2="694.5" y2="651.0" style="stroke:black; stroke-width:1px;" />
<line x1="694.5" y1="658.0" x2="694.5" y2="682.0" style="stroke:black; stroke-width:1px;" />
<line x1="694.5" y1="689.0" x2="694.5" y2="713.0" style="stroke:black; stroke-width:1px;" />
<line x1="694.5" y1="720.0" x2="694.5" y2="744.0" style="stroke:black; stroke-width:1px;" />
<line x1="694.5" y1="751.0" x2="694.5" y2="775.0" style="stroke:black; stroke-width:1px;" />
<line x1="694.5" y1="782.0" x2="694.5" y2="806.0" style="stroke:black; stroke-width:1px;" />
<line x1="694.5" y1="565.0" x2="725.5" y2="589.0" style="stroke:black; stroke-width:1px;" />
<line x1="688.25" y1="286.0" x2="709.5" y2="310.0" style="stroke:black; stroke-width:1px;" />
<line x1="682.75" y1="224.0" x2="712.25" y2="248.0" style="stroke:black; stroke-width:1px;" />
<line x1="516.3125" y1="131.0" x2="621.375" y2="155.0" style="stroke:black; stroke-width:1px;" />
<line x1="455.25" y1="38.0" x2="790.75" y2="62.0" style="stroke:black; stroke-width:1px;" />
<line x1="790.75" y1="69.0" x2="790.75" y2="93.0" style="stroke:black; stroke-width:1px;" />
<line x1="790.75" y1="100.0" x2="769.5" y2="124.0" style="stroke:black; stroke-width:1px;" />
<line x1="769.5" y1="131.0" x2="769.5" y2="155.0" style="stroke:black; stroke-width:1px;" />
<line x1="769.5" y1="162.0" x2="769.5" y2="186.0" style="stroke:black; stroke-width:1px;" />
<line x1="769.5" y1="193.0" x2="769.5" y2="217.0" style="stroke:black; stroke-width:1px;" />
<line x1="769.5" y1="224.0" x2="769.5" y2="248.0" style="stroke:black; stroke-width:1px;" />
<line x1="769.5" y1="255.0" x2="769.5" y2="279.0" style="stroke:black; stroke-width:1px;" />
<line x1="769.5" y1="286.0" x2="769.5" y2="310.0" style="stroke:black; stroke-width:1px;" />
<line x1="769.5" y1="317.0" x2="742.0" y2="341.0" style="stroke:black; stroke-width:1px;" />
<line x1="742.0" y1="348.0" x2="742.0" y2="372.0" style="stroke:black; stroke-width:1px;" />
<line x1="769.5" y1="317.0" x2="797.0" y2="341.0" style="stroke:black; stroke-width:1px;" />
<line x1="797.0" y1="348.0" x2="797.0" y2="372.0" style="stroke:black; stroke-width:1px;" />
<line x1="797.0" y1="379.0" x2="766.0" y2="403.0" style="stroke:black; stroke-width:1px;" />
<line x1="797.0" y1="379.0" x2="797.0" y2="403.0" style="stroke:black; stroke-width:1px;" />
<line x1="797.0" y1="410.0" x2="797.0" y2="434.0" style="stroke:black; stroke-width:1px;" />
<line x1="797.0" y1="441.0" x2="797.0" y2="465.0" style="stroke:black; stroke-width:1px;" />
<line x1="797.0" y1="472.0" x2="797.0" y2="496.0" style="stroke:black; stroke-width:1px;" />
<line x1="797.0" y1="503.0" x2="797.0" y2="527.0" style="stroke:black; stroke-width:1px;" />
<line x1="797.0" y1="534.0" x2="797.0" y2="558.0" style="stroke:black; stroke-width:1px;" />
<line x1="797.0" y1="565.0" x2="797.0" y2="589.0" style="stroke:black; stroke-width:1px;" />
<line x1="797.0" y1="596.0" x2="797.0" y2="620.0" style="stroke:black; stroke-width:1px;" />
<line x1="797.0" y1="379.0" x2="828.0" y2="403.0" style="stroke:black; stroke-width:1px;" />
<line x1="790.75" y1="100.0" x2="812.0" y2="124.0" style="stroke:black; stroke-width:1px;" />
<line x1="483.5" y1="7.0" x2="511.75" y2="31.0" style="stroke:black; stroke-width:1px;" />
<rect x="284.5" y="217.0" width="22.0" height="14.0" style="fill:orange; stroke:rgb(0,0,0);" rx="1"/>
<text x="286" y="226" style="font-family:sans-serif;font-size:10px;">
==
</text>
<rect x="106.5" y="186.0" width="13.0" height="14.0" style="fill:orange; stroke:rgb(0,0,0);" rx="1"/>
<text x="108" y="195" style="font-family:sans-serif;font-size:10px;">
=
</text>
<rect x="403.5" y="279.0" width="43.0" height="14.0" style="fill:orange; stroke:rgb(0,0,0);" rx="1"/>
<text x="405" y="288" style="font-family:sans-serif;font-size:10px;">
testlist
</text>
<rect x="500.3125" y="124.0" width="32.0" height="14.0" style="fill:orange; stroke:rgb(0,0,0);" rx="1"/>
<text x="502" y="133" style="font-family:sans-serif;font-size:10px;">
suite
</text>
<rect x="784.0" y="465.0" width="26.0" height="14.0" style="fill:orange; stroke:rgb(0,0,0);" rx="1"/>
<text x="786" y="474" style="font-family:sans-serif;font-size:10px;">
test
</text>
<rect x="761.5" y="527.0" width="71.0" height="14.0" style="fill:orange; stroke:rgb(0,0,0);" rx="1"/>
<text x="763" y="536" style="font-family:sans-serif;font-size:10px;">
comparison
</text>
<rect x="16.0" y="279.0" width="71.0" height="14.0" style="fill:orange; stroke:rgb(0,0,0);" rx="1"/>
<text x="18" y="288" style="font-family:sans-serif;font-size:10px;">
comparison
</text>
<rect x="227.5" y="248.0" width="29.0" height="14.0" style="fill:orange; stroke:rgb(0,0,0);" rx="1"/>
<text x="229" y="257" style="font-family:sans-serif;font-size:10px;">
expr
</text>
<rect x="431.25" y="155.0" width="30.0" height="14.0" style="fill:orange; stroke:rgb(0,0,0);" rx="1"/>
<text x="433" y="164" style="font-family:sans-serif;font-size:10px;">
stmt
</text>
<rect x="574.5" y="372.0" width="33.0" height="14.0" style="fill:orange; stroke:rgb(0,0,0);" rx="1"/>
<text x="576" y="381" style="font-family:sans-serif;font-size:10px;">
atom
</text>
<rect x="778.5" y="620.0" width="37.0" height="14.0" style="fill:orange; stroke:rgb(0,0,0);" rx="1"/>
<text x="780" y="629" style="font-family:sans-serif;font-size:10px;">
"ciao"
</text>
<rect x="661.5" y="558.0" width="66.0" height="14.0" style="fill:orange; stroke:rgb(0,0,0);" rx="1"/>
<text x="663" y="567" style="font-family:sans-serif;font-size:10px;">
arguments
</text>
<rect x="659.0" y="713.0" width="71.0" height="14.0" style="fill:orange; stroke:rgb(0,0,0);" rx="1"/>
<text x="661" y="722" style="font-family:sans-serif;font-size:10px;">
comparison
</text>
<rect x="727.0" y="372.0" width="30.0" height="14.0" style="fill:orange; stroke:rgb(0,0,0);" rx="1"/>
<text x="729" y="381" style="font-family:sans-serif;font-size:10px;">
print
</text>
<rect x="313.5" y="217.0" width="71.0" height="14.0" style="fill:orange; stroke:rgb(0,0,0);" rx="1"/>
<text x="315" y="226" style="font-family:sans-serif;font-size:10px;">
comparison
</text>
<rect x="165.0" y="248.0" width="26.0" height="14.0" style="fill:orange; stroke:rgb(0,0,0);" rx="1"/>
<text x="167" y="257" style="font-family:sans-serif;font-size:10px;">
test
</text>
<rect x="479.5" y="496.0" width="8.0" height="14.0" style="fill:orange; stroke:rgb(0,0,0);" rx="1"/>
<text x="481" y="505" style="font-family:sans-serif;font-size:10px;">
)
</text>
<rect x="665.0" y="620.0" width="59.0" height="14.0" style="fill:orange; stroke:rgb(0,0,0);" rx="1"/>
<text x="667" y="629" style="font-family:sans-serif;font-size:10px;">
argument
</text>
<rect x="436.0" y="682.0" width="33.0" height="14.0" style="fill:orange; stroke:rgb(0,0,0);" rx="1"/>
<text x="438" y="691" style="font-family:sans-serif;font-size:10px;">
atom
</text>
<rect x="678.0" y="775.0" width="33.0" height="14.0" style="fill:orange; stroke:rgb(0,0,0);" rx="1"/>
<text x="680" y="784" style="font-family:sans-serif;font-size:10px;">
atom
</text>
<rect x="139.0" y="124.0" width="4.0" height="14.0" style="fill:orange; stroke:rgb(0,0,0);" rx="1"/>
<text x="141" y="133" style="font-family:sans-serif;font-size:10px;">

</text>
<rect x="400.40625" y="124.0" width="8.0" height="14.0" style="fill:orange; stroke:rgb(0,0,0);" rx="1"/>
<text x="402" y="133" style="font-family:sans-serif;font-size:10px;">
:
</text>
<rect x="0.0" y="155.0" width="103.0" height="14.0" style="fill:orange; stroke:rgb(0,0,0);" rx="1"/>
<text x="2" y="164" style="font-family:sans-serif;font-size:10px;">
testlist_star_expr
</text>
<rect x="381.0" y="434.0" width="33.0" height="14.0" style="fill:orange; stroke:rgb(0,0,0);" rx="1"/>
<text x="383" y="443" style="font-family:sans-serif;font-size:10px;">
atom
</text>
<rect x="225.5" y="279.0" width="33.0" height="14.0" style="fill:orange; stroke:rgb(0,0,0);" rx="1"/>
<text x="227" y="288" style="font-family:sans-serif;font-size:10px;">
atom
</text>
<rect x="428.0" y="713.0" width="49.0" height="14.0" style="fill:orange; stroke:rgb(0,0,0);" rx="1"/>
<text x="430" y="722" style="font-family:sans-serif;font-size:10px;">
"x·is·1."
</text>
<rect x="582.375" y="155.0" width="30.0" height="14.0" style="fill:orange; stroke:rgb(0,0,0);" rx="1"/>
<text x="584" y="164" style="font-family:sans-serif;font-size:10px;">
stmt
</text>
<rect x="569.0" y="434.0" width="44.0" height="14.0" style="fill:orange; stroke:rgb(0,0,0);" rx="1"/>
<text x="571" y="443" style="font-family:sans-serif;font-size:10px;">
integer
</text>
<rect x="585.5" y="465.0" width="11.0" height="14.0" style="fill:orange; stroke:rgb(0,0,0);" rx="1"/>
<text x="587" y="474" style="font-family:sans-serif;font-size:10px;">
1
</text>
<rect x="409.25" y="186.0" width="74.0" height="14.0" style="fill:orange; stroke:rgb(0,0,0);" rx="1"/>
<text x="411" y="195" style="font-family:sans-serif;font-size:10px;">
simple_stmt
</text>
<rect x="681.5" y="651.0" width="26.0" height="14.0" style="fill:orange; stroke:rgb(0,0,0);" rx="1"/>
<text x="683" y="660" style="font-family:sans-serif;font-size:10px;">
test
</text>
<rect x="378.15625" y="62.0" width="30.0" height="14.0" style="fill:orange; stroke:rgb(0,0,0);" rx="1"/>
<text x="380" y="71" style="font-family:sans-serif;font-size:10px;">
stmt
</text>
<rect x="46.5" y="403.0" width="10.0" height="14.0" style="fill:orange; stroke:rgb(0,0,0);" rx="1"/>
<text x="48" y="412" style="font-family:sans-serif;font-size:10px;">
x
</text>
<rect x="775.75" y="62.0" width="30.0" height="14.0" style="fill:orange; stroke:rgb(0,0,0);" rx="1"/>
<text x="777" y="71" style="font-family:sans-serif;font-size:10px;">
stmt
</text>
<rect x="206.5" y="217.0" width="71.0" height="14.0" style="fill:orange; stroke:rgb(0,0,0);" rx="1"/>
<text x="208" y="226" style="font-family:sans-serif;font-size:10px;">
comparison
</text>
<rect x="735.5" y="248.0" width="68.0" height="14.0" style="fill:orange; stroke:rgb(0,0,0);" rx="1"/>
<text x="737" y="257" style="font-family:sans-serif;font-size:10px;">
logical_test
</text>
<rect x="438.0" y="651.0" width="29.0" height="14.0" style="fill:orange; stroke:rgb(0,0,0);" rx="1"/>
<text x="440" y="660" style="font-family:sans-serif;font-size:10px;">
expr
</text>
<rect x="763.0" y="496.0" width="68.0" height="14.0" style="fill:orange; stroke:rgb(0,0,0);" rx="1"/>
<text x="765" y="505" style="font-family:sans-serif;font-size:10px;">
logical_test
</text>
<rect x="427.75" y="31.0" width="55.0" height="14.0" style="fill:orange; stroke:rgb(0,0,0);" rx="1"/>
<text x="429" y="40" style="font-family:sans-serif;font-size:10px;">
file_input
</text>
<rect x="343.5" y="372.0" width="11.0" height="14.0" style="fill:orange; stroke:rgb(0,0,0);" rx="1"/>
<text x="345" y="381" style="font-family:sans-serif;font-size:10px;">
1
</text>
<rect x="662.25" y="248.0" width="4.0" height="14.0" style="fill:orange; stroke:rgb(0,0,0);" rx="1"/>
<text x="664" y="257" style="font-family:sans-serif;font-size:10px;">

</text>
<rect x="503.5" y="248.0" width="68.0" height="14.0" style="fill:orange; stroke:rgb(0,0,0);" rx="1"/>
<text x="505" y="257" style="font-family:sans-serif;font-size:10px;">
logical_test
</text>
<rect x="633.5" y="310.0" width="67.0" height="14.0" style="fill:orange; stroke:rgb(0,0,0);" rx="1"/>
<text x="635" y="319" style="font-family:sans-serif;font-size:10px;">
small_stmt
</text>
<rect x="469.5" y="341.0" width="29.0" height="14.0" style="fill:orange; stroke:rgb(0,0,0);" rx="1"/>
<text x="471" y="350" style="font-family:sans-serif;font-size:10px;">
expr
</text>
<rect x="154.0" y="403.0" width="48.0" height="14.0" style="fill:orange; stroke:rgb(0,0,0);" rx="1"/>
<text x="156" y="412" style="font-family:sans-serif;font-size:10px;">
number
</text>
<rect x="418.5" y="589.0" width="68.0" height="14.0" style="fill:orange; stroke:rgb(0,0,0);" rx="1"/>
<text x="420" y="598" style="font-family:sans-serif;font-size:10px;">
logical_test
</text>
<rect x="327.0" y="341.0" width="44.0" height="14.0" style="fill:orange; stroke:rgb(0,0,0);" rx="1"/>
<text x="329" y="350" style="font-family:sans-serif;font-size:10px;">
integer
</text>
<rect x="82.75" y="93.0" width="74.0" height="14.0" style="fill:orange; stroke:rgb(0,0,0);" rx="1"/>
<text x="84" y="102" style="font-family:sans-serif;font-size:10px;">
simple_stmt
</text>
<rect x="417.0" y="620.0" width="71.0" height="14.0" style="fill:orange; stroke:rgb(0,0,0);" rx="1"/>
<text x="419" y="629" style="font-family:sans-serif;font-size:10px;">
comparison
</text>
<rect x="479.0" y="434.0" width="10.0" height="14.0" style="fill:orange; stroke:rgb(0,0,0);" rx="1"/>
<text x="481" y="443" style="font-family:sans-serif;font-size:10px;">
x
</text>
<rect x="576.5" y="341.0" width="29.0" height="14.0" style="fill:orange; stroke:rgb(0,0,0);" rx="1"/>
<text x="578" y="350" style="font-family:sans-serif;font-size:10px;">
expr
</text>
<rect x="332.5" y="279.0" width="33.0" height="14.0" style="fill:orange; stroke:rgb(0,0,0);" rx="1"/>
<text x="334" y="288" style="font-family:sans-serif;font-size:10px;">
atom
</text>
<rect x="419.5" y="465.0" width="66.0" height="14.0" style="fill:orange; stroke:rgb(0,0,0);" rx="1"/>
<text x="421" y="474" style="font-family:sans-serif;font-size:10px;">
arguments
</text>
<rect x="104.75" y="62.0" width="30.0" height="14.0" style="fill:orange; stroke:rgb(0,0,0);" rx="1"/>
<text x="106" y="71" style="font-family:sans-serif;font-size:10px;">
stmt
</text>
<rect x="615.5" y="341.0" width="103.0" height="14.0" style="fill:orange; stroke:rgb(0,0,0);" rx="1"/>
<text x="617" y="350" style="font-family:sans-serif;font-size:10px;">
testlist_star_expr
</text>
<rect x="764.0" y="372.0" width="66.0" height="14.0" style="fill:orange; stroke:rgb(0,0,0);" rx="1"/>
<text x="766" y="381" style="font-family:sans-serif;font-size:10px;">
arguments
</text>
<rect x="334.5" y="248.0" width="29.0" height="14.0" style="fill:orange; stroke:rgb(0,0,0);" rx="1"/>
<text x="336" y="257" style="font-family:sans-serif;font-size:10px;">
expr
</text>
<rect x="264.5" y="124.0" width="11.0" height="14.0" style="fill:orange; stroke:rgb(0,0,0);" rx="1"/>
<text x="266" y="133" style="font-family:sans-serif;font-size:10px;">
if
</text>
<rect x="410.5" y="403.0" width="29.0" height="14.0" style="fill:orange; stroke:rgb(0,0,0);" rx="1"/>
<text x="412" y="412" style="font-family:sans-serif;font-size:10px;">
expr
</text>
<rect x="391.0" y="341.0" width="68.0" height="14.0" style="fill:orange; stroke:rgb(0,0,0);" rx="1"/>
<text x="393" y="350" style="font-family:sans-serif;font-size:10px;">
logical_test
</text>
<rect x="260.0" y="186.0" width="71.0" height="14.0" style="fill:orange; stroke:rgb(0,0,0);" rx="1"/>
<text x="262" y="195" style="font-family:sans-serif;font-size:10px;">
comparison
</text>
<rect x="17.5" y="248.0" width="68.0" height="14.0" style="fill:orange; stroke:rgb(0,0,0);" rx="1"/>
<text x="19" y="257" style="font-family:sans-serif;font-size:10px;">
logical_test
</text>
<rect x="654.0" y="403.0" width="26.0" height="14.0" style="fill:orange; stroke:rgb(0,0,0);" rx="1"/>
<text x="656" y="412" style="font-family:sans-serif;font-size:10px;">
test
</text>
<rect x="433.5" y="434.0" width="38.0" height="14.0" style="fill:orange; stroke:rgb(0,0,0);" rx="1"/>
<text x="435" y="443" style="font-family:sans-serif;font-size:10px;">
trailer
</text>
<rect x="389.5" y="372.0" width="71.0" height="14.0" style="fill:orange; stroke:rgb(0,0,0);" rx="1"/>
<text x="391" y="381" style="font-family:sans-serif;font-size:10px;">
comparison
</text>
<rect x="432.5" y="496.0" width="40.0" height="14.0" style="fill:orange; stroke:rgb(0,0,0);" rx="1"/>
<text x="434" y="505" style="font-family:sans-serif;font-size:10px;">
arglist
</text>
<rect x="604.625" y="217.0" width="8.0" height="14.0" style="fill:orange; stroke:rgb(0,0,0);" rx="1"/>
<text x="606" y="226" style="font-family:sans-serif;font-size:10px;">
:
</text>
<rect x="651.25" y="248.0" width="4.0" height="14.0" style="fill:orange; stroke:rgb(0,0,0);" rx="1"/>
<text x="653" y="257" style="font-family:sans-serif;font-size:10px;">

</text>
<rect x="412.0" y="310.0" width="26.0" height="14.0" style="fill:orange; stroke:rgb(0,0,0);" rx="1"/>
<text x="414" y="319" style="font-family:sans-serif;font-size:10px;">
test
</text>
<rect x="782.5" y="558.0" width="29.0" height="14.0" style="fill:orange; stroke:rgb(0,0,0);" rx="1"/>
<text x="784" y="567" style="font-family:sans-serif;font-size:10px;">
expr
</text>
<rect x="439.5" y="558.0" width="26.0" height="14.0" style="fill:orange; stroke:rgb(0,0,0);" rx="1"/>
<text x="441" y="567" style="font-family:sans-serif;font-size:10px;">
test
</text>
<rect x="810.0" y="124.0" width="4.0" height="14.0" style="fill:orange; stroke:rgb(0,0,0);" rx="1"/>
<text x="812" y="133" style="font-family:sans-serif;font-size:10px;">

</text>
<rect x="163.5" y="341.0" width="29.0" height="14.0" style="fill:orange; stroke:rgb(0,0,0);" rx="1"/>
<text x="165" y="350" style="font-family:sans-serif;font-size:10px;">
expr
</text>
<rect x="718.0" y="155.0" width="103.0" height="14.0" style="fill:orange; stroke:rgb(0,0,0);" rx="1"/>
<text x="720" y="164" style="font-family:sans-serif;font-size:10px;">
testlist_star_expr
</text>
<rect x="237.0" y="341.0" width="10.0" height="14.0" style="fill:orange; stroke:rgb(0,0,0);" rx="1"/>
<text x="239" y="350" style="font-family:sans-serif;font-size:10px;">
x
</text>
<rect x="391.5" y="217.0" width="67.0" height="14.0" style="fill:orange; stroke:rgb(0,0,0);" rx="1"/>
<text x="393" y="226" style="font-family:sans-serif;font-size:10px;">
small_stmt
</text>
<rect x="748.0" y="186.0" width="43.0" height="14.0" style="fill:orange; stroke:rgb(0,0,0);" rx="1"/>
<text x="750" y="195" style="font-family:sans-serif;font-size:10px;">
testlist
</text>
<rect x="631.5" y="465.0" width="71.0" height="14.0" style="fill:orange; stroke:rgb(0,0,0);" rx="1"/>
<text x="633" y="474" style="font-family:sans-serif;font-size:10px;">
comparison
</text>
<rect x="37.0" y="310.0" width="29.0" height="14.0" style="fill:orange; stroke:rgb(0,0,0);" rx="1"/>
<text x="39" y="319" style="font-family:sans-serif;font-size:10px;">
expr
</text>
<rect x="526.5" y="310.0" width="22.0" height="14.0" style="fill:orange; stroke:rgb(0,0,0);" rx="1"/>
<text x="528" y="319" style="font-family:sans-serif;font-size:10px;">
==
</text>
<rect x="680.0" y="744.0" width="29.0" height="14.0" style="fill:orange; stroke:rgb(0,0,0);" rx="1"/>
<text x="682" y="753" style="font-family:sans-serif;font-size:10px;">
expr
</text>
<rect x="659.5" y="589.0" width="8.0" height="14.0" style="fill:orange; stroke:rgb(0,0,0);" rx="1"/>
<text x="661" y="598" style="font-family:sans-serif;font-size:10px;">
(
</text>
<rect x="767.5" y="434.0" width="59.0" height="14.0" style="fill:orange; stroke:rgb(0,0,0);" rx="1"/>
<text x="769" y="443" style="font-family:sans-serif;font-size:10px;">
argument
</text>
<rect x="224.0" y="310.0" width="36.0" height="14.0" style="fill:orange; stroke:rgb(0,0,0);" rx="1"/>
<text x="226" y="319" style="font-family:sans-serif;font-size:10px;">
name
</text>
<rect x="668.5" y="806.0" width="52.0" height="14.0" style="fill:orange; stroke:rgb(0,0,0);" rx="1"/>
<text x="670" y="815" style="font-family:sans-serif;font-size:10px;">
"doppio"
</text>
<rect x="325.0" y="310.0" width="48.0" height="14.0" style="fill:orange; stroke:rgb(0,0,0);" rx="1"/>
<text x="327" y="319" style="font-family:sans-serif;font-size:10px;">
number
</text>
<rect x="624.5" y="558.0" width="30.0" height="14.0" style="fill:orange; stroke:rgb(0,0,0);" rx="1"/>
<text x="626" y="567" style="font-family:sans-serif;font-size:10px;">
print
</text>
<rect x="382.5" y="465.0" width="30.0" height="14.0" style="fill:orange; stroke:rgb(0,0,0);" rx="1"/>
<text x="384" y="474" style="font-family:sans-serif;font-size:10px;">
print
</text>
<rect x="673.25" y="248.0" width="30.0" height="14.0" style="fill:orange; stroke:rgb(0,0,0);" rx="1"/>
<text x="675" y="257" style="font-family:sans-serif;font-size:10px;">
stmt
</text>
<rect x="524.5" y="217.0" width="26.0" height="14.0" style="fill:orange; stroke:rgb(0,0,0);" rx="1"/>
<text x="526" y="226" style="font-family:sans-serif;font-size:10px;">
test
</text>
<rect x="756.5" y="217.0" width="26.0" height="14.0" style="fill:orange; stroke:rgb(0,0,0);" rx="1"/>
<text x="758" y="226" style="font-family:sans-serif;font-size:10px;">
test
</text>
<rect x="156.5" y="217.0" width="43.0" height="14.0" style="fill:orange; stroke:rgb(0,0,0);" rx="1"/>
<text x="158" y="226" style="font-family:sans-serif;font-size:10px;">
testlist
</text>
<rect x="651.25" y="279.0" width="74.0" height="14.0" style="fill:orange; stroke:rgb(0,0,0);" rx="1"/>
<text x="653" y="288" style="font-family:sans-serif;font-size:10px;">
simple_stmt
</text>
<rect x="161.5" y="372.0" width="33.0" height="14.0" style="fill:orange; stroke:rgb(0,0,0);" rx="1"/>
<text x="163" y="381" style="font-family:sans-serif;font-size:10px;">
atom
</text>
<rect x="126.5" y="186.0" width="103.0" height="14.0" style="fill:orange; stroke:rgb(0,0,0);" rx="1"/>
<text x="128" y="195" style="font-family:sans-serif;font-size:10px;">
testlist_star_expr
</text>
<rect x="725.5" y="341.0" width="33.0" height="14.0" style="fill:orange; stroke:rgb(0,0,0);" rx="1"/>
<text x="727" y="350" style="font-family:sans-serif;font-size:10px;">
atom
</text>
<rect x="448.5" y="310.0" width="71.0" height="14.0" style="fill:orange; stroke:rgb(0,0,0);" rx="1"/>
<text x="450" y="319" style="font-family:sans-serif;font-size:10px;">
comparison
</text>
<rect x="110.0" y="155.0" width="71.0" height="14.0" style="fill:orange; stroke:rgb(0,0,0);" rx="1"/>
<text x="112" y="164" style="font-family:sans-serif;font-size:10px;">
assign_part
</text>
<rect x="65.0" y="124.0" width="67.0" height="14.0" style="fill:orange; stroke:rgb(0,0,0);" rx="1"/>
<text x="67" y="133" style="font-family:sans-serif;font-size:10px;">
small_stmt
</text>
<rect x="824.0" y="403.0" width="8.0" height="14.0" style="fill:orange; stroke:rgb(0,0,0);" rx="1"/>
<text x="826" y="412" style="font-family:sans-serif;font-size:10px;">
)
</text>
<rect x="345.65625" y="93.0" width="95.0" height="14.0" style="fill:orange; stroke:rgb(0,0,0);" rx="1"/>
<text x="347" y="102" style="font-family:sans-serif;font-size:10px;">
compound_stmt
</text>
<rect x="467.5" y="372.0" width="33.0" height="14.0" style="fill:orange; stroke:rgb(0,0,0);" rx="1"/>
<text x="469" y="381" style="font-family:sans-serif;font-size:10px;">
atom
</text>
<rect x="38.5" y="217.0" width="26.0" height="14.0" style="fill:orange; stroke:rgb(0,0,0);" rx="1"/>
<text x="40" y="226" style="font-family:sans-serif;font-size:10px;">
test
</text>
<rect x="156.0" y="434.0" width="44.0" height="14.0" style="fill:orange; stroke:rgb(0,0,0);" rx="1"/>
<text x="158" y="443" style="font-family:sans-serif;font-size:10px;">
integer
</text>
<rect x="710.25" y="248.0" width="4.0" height="14.0" style="fill:orange; stroke:rgb(0,0,0);" rx="1"/>
<text x="712" y="257" style="font-family:sans-serif;font-size:10px;">

</text>
<rect x="619.375" y="155.0" width="4.0" height="14.0" style="fill:orange; stroke:rgb(0,0,0);" rx="1"/>
<text x="621" y="164" style="font-family:sans-serif;font-size:10px;">

</text>
<rect x="660.5" y="682.0" width="68.0" height="14.0" style="fill:orange; stroke:rgb(0,0,0);" rx="1"/>
<text x="662" y="691" style="font-family:sans-serif;font-size:10px;">
logical_test
</text>
<rect x="736.0" y="124.0" width="67.0" height="14.0" style="fill:orange; stroke:rgb(0,0,0);" rx="1"/>
<text x="738" y="133" style="font-family:sans-serif;font-size:10px;">
small_stmt
</text>
<rect x="261.5" y="155.0" width="68.0" height="14.0" style="fill:orange; stroke:rgb(0,0,0);" rx="1"/>
<text x="263" y="164" style="font-family:sans-serif;font-size:10px;">
logical_test
</text>
<rect x="465.5" y="217.0" width="4.0" height="14.0" style="fill:orange; stroke:rgb(0,0,0);" rx="1"/>
<text x="467" y="226" style="font-family:sans-serif;font-size:10px;">

</text>
<rect x="506.5" y="217.0" width="11.0" height="14.0" style="fill:orange; stroke:rgb(0,0,0);" rx="1"/>
<text x="508" y="226" style="font-family:sans-serif;font-size:10px;">
if
</text>
<rect x="567.0" y="403.0" width="48.0" height="14.0" style="fill:orange; stroke:rgb(0,0,0);" rx="1"/>
<text x="569" y="412" style="font-family:sans-serif;font-size:10px;">
number
</text>
<rect x="282.5" y="124.0" width="26.0" height="14.0" style="fill:orange; stroke:rgb(0,0,0);" rx="1"/>
<text x="284" y="133" style="font-family:sans-serif;font-size:10px;">
test
</text>
<rect x="35.0" y="341.0" width="33.0" height="14.0" style="fill:orange; stroke:rgb(0,0,0);" rx="1"/>
<text x="37" y="350" style="font-family:sans-serif;font-size:10px;">
atom
</text>
<rect x="423.0" y="527.0" width="59.0" height="14.0" style="fill:orange; stroke:rgb(0,0,0);" rx="1"/>
<text x="425" y="536" style="font-family:sans-serif;font-size:10px;">
argument
</text>
<rect x="555.5" y="310.0" width="71.0" height="14.0" style="fill:orange; stroke:rgb(0,0,0);" rx="1"/>
<text x="557" y="319" style="font-family:sans-serif;font-size:10px;">
comparison
</text>
<rect x="652.5" y="496.0" width="29.0" height="14.0" style="fill:orange; stroke:rgb(0,0,0);" rx="1"/>
<text x="654" y="505" style="font-family:sans-serif;font-size:10px;">
expr
</text>
<rect x="734.0" y="279.0" width="71.0" height="14.0" style="fill:orange; stroke:rgb(0,0,0);" rx="1"/>
<text x="736" y="288" style="font-family:sans-serif;font-size:10px;">
comparison
</text>
<rect x="762.0" y="403.0" width="8.0" height="14.0" style="fill:orange; stroke:rgb(0,0,0);" rx="1"/>
<text x="764" y="412" style="font-family:sans-serif;font-size:10px;">
(
</text>
<rect x="549.875" y="186.0" width="95.0" height="14.0" style="fill:orange; stroke:rgb(0,0,0);" rx="1"/>
<text x="551" y="195" style="font-family:sans-serif;font-size:10px;">
compound_stmt
</text>
<rect x="417.5" y="496.0" width="8.0" height="14.0" style="fill:orange; stroke:rgb(0,0,0);" rx="1"/>
<text x="419" y="505" style="font-family:sans-serif;font-size:10px;">
(
</text>
<rect x="707.5" y="310.0" width="4.0" height="14.0" style="fill:orange; stroke:rgb(0,0,0);" rx="1"/>
<text x="709" y="319" style="font-family:sans-serif;font-size:10px;">

</text>
<rect x="777.0" y="403.0" width="40.0" height="14.0" style="fill:orange; stroke:rgb(0,0,0);" rx="1"/>
<text x="779" y="412" style="font-family:sans-serif;font-size:10px;">
arglist
</text>
<rect x="373.5" y="248.0" width="103.0" height="14.0" style="fill:orange; stroke:rgb(0,0,0);" rx="1"/>
<text x="375" y="257" style="font-family:sans-serif;font-size:10px;">
testlist_star_expr
</text>
<rect x="30.0" y="186.0" width="43.0" height="14.0" style="fill:orange; stroke:rgb(0,0,0);" rx="1"/>
<text x="32" y="195" style="font-family:sans-serif;font-size:10px;">
testlist
</text>
<rect x="33.5" y="372.0" width="36.0" height="14.0" style="fill:orange; stroke:rgb(0,0,0);" rx="1"/>
<text x="35" y="381" style="font-family:sans-serif;font-size:10px;">
name
</text>
<rect x="666.75" y="217.0" width="32.0" height="14.0" style="fill:orange; stroke:rgb(0,0,0);" rx="1"/>
<text x="668" y="226" style="font-family:sans-serif;font-size:10px;">
suite
</text>
<rect x="470.0" y="0.0" width="27.0" height="14.0" style="fill:orange; stroke:rgb(0,0,0);" rx="1"/>
<text x="472" y="9" style="font-family:sans-serif;font-size:10px;">
root
</text>
<rect x="753.75" y="93.0" width="74.0" height="14.0" style="fill:orange; stroke:rgb(0,0,0);" rx="1"/>
<text x="755" y="102" style="font-family:sans-serif;font-size:10px;">
simple_stmt
</text>
<rect x="502.0" y="279.0" width="71.0" height="14.0" style="fill:orange; stroke:rgb(0,0,0);" rx="1"/>
<text x="504" y="288" style="font-family:sans-serif;font-size:10px;">
comparison
</text>
<rect x="645.5" y="372.0" width="43.0" height="14.0" style="fill:orange; stroke:rgb(0,0,0);" rx="1"/>
<text x="647" y="381" style="font-family:sans-serif;font-size:10px;">
testlist
</text>
<rect x="778.0" y="341.0" width="38.0" height="14.0" style="fill:orange; stroke:rgb(0,0,0);" rx="1"/>
<text x="780" y="350" style="font-family:sans-serif;font-size:10px;">
trailer
</text>
<rect x="780.5" y="589.0" width="33.0" height="14.0" style="fill:orange; stroke:rgb(0,0,0);" rx="1"/>
<text x="782" y="598" style="font-family:sans-serif;font-size:10px;">
atom
</text>
<rect x="633.0" y="434.0" width="68.0" height="14.0" style="fill:orange; stroke:rgb(0,0,0);" rx="1"/>
<text x="635" y="443" style="font-family:sans-serif;font-size:10px;">
logical_test
</text>
<rect x="489.75" y="31.0" width="44.0" height="14.0" style="fill:orange; stroke:rgb(0,0,0);" rx="1"/>
<text x="491" y="40" style="font-family:sans-serif;font-size:10px;">
&lt;EOF&gt;
</text>
<rect x="721.5" y="589.0" width="8.0" height="14.0" style="fill:orange; stroke:rgb(0,0,0);" rx="1"/>
<text x="723" y="598" style="font-family:sans-serif;font-size:10px;">
)
</text>
<rect x="420.25" y="155.0" width="4.0" height="14.0" style="fill:orange; stroke:rgb(0,0,0);" rx="1"/>
<text x="422" y="164" style="font-family:sans-serif;font-size:10px;">

</text>
<rect x="755.0" y="310.0" width="29.0" height="14.0" style="fill:orange; stroke:rgb(0,0,0);" rx="1"/>
<text x="757" y="319" style="font-family:sans-serif;font-size:10px;">
expr
</text>
<rect x="674.5" y="589.0" width="40.0" height="14.0" style="fill:orange; stroke:rgb(0,0,0);" rx="1"/>
<text x="676" y="598" style="font-family:sans-serif;font-size:10px;">
arglist
</text>
<rect x="142.5" y="310.0" width="71.0" height="14.0" style="fill:orange; stroke:rgb(0,0,0);" rx="1"/>
<text x="144" y="319" style="font-family:sans-serif;font-size:10px;">
comparison
</text>
<rect x="144.0" y="279.0" width="68.0" height="14.0" style="fill:orange; stroke:rgb(0,0,0);" rx="1"/>
<text x="146" y="288" style="font-family:sans-serif;font-size:10px;">
logical_test
</text>
<rect x="172.5" y="465.0" width="11.0" height="14.0" style="fill:orange; stroke:rgb(0,0,0);" rx="1"/>
<text x="174" y="474" style="font-family:sans-serif;font-size:10px;">
1
</text>
<rect x="623.0" y="527.0" width="33.0" height="14.0" style="fill:orange; stroke:rgb(0,0,0);" rx="1"/>
<text x="625" y="536" style="font-family:sans-serif;font-size:10px;">
atom
</text>
<rect x="409.25" y="155.0" width="4.0" height="14.0" style="fill:orange; stroke:rgb(0,0,0);" rx="1"/>
<text x="411" y="164" style="font-family:sans-serif;font-size:10px;">

</text>
<rect x="466.0" y="403.0" width="36.0" height="14.0" style="fill:orange; stroke:rgb(0,0,0);" rx="1"/>
<text x="468" y="412" style="font-family:sans-serif;font-size:10px;">
name
</text>
<rect x="675.5" y="527.0" width="38.0" height="14.0" style="fill:orange; stroke:rgb(0,0,0);" rx="1"/>
<text x="677" y="536" style="font-family:sans-serif;font-size:10px;">
trailer
</text>
</svg>