<svg width="1882.1000000000001" height="1056.0" xmlns="http://www.w3.org/2000/svg" xmlns:xlink="http://www.w3.org/1999/xlink"><line x1="526.375" y1="7.5" x2="502.125" y2="32.0" style="stroke:black; stroke-width:1px;" />
<line x1="502.125" y1="39.5" x2="102.75" y2="64.0" style="stroke:black; stroke-width:1px;" />
<line x1="102.75" y1="71.5" x2="102.75" y2="96.0" style="stroke:black; stroke-width:1px;" />
<line x1="102.75" y1="103.5" x2="84.75" y2="128.0" style="stroke:black; stroke-width:1px;" />
<line x1="84.75" y1="135.5" x2="44.0" y2="160.0" style="stroke:black; stroke-width:1px;" />
<line x1="44.0" y1="167.5" x2="44.0" y2="192.0" style="stroke:black; stroke-width:1px;" />
<line x1="44.0" y1="199.5" x2="44.0" y2="224.0" style="stroke:black; stroke-width:1px;" />
<line x1="44.0" y1="231.5" x2="44.0" y2="256.0" style="stroke:black; stroke-width:1px;" />
<line x1="44.0" y1="263.5" x2="44.0" y2="288.0" style="stroke:black; stroke-width:1px;" />
<line x1="44.0" y1="295.5" x2="44.0" y2="320.0" style="stroke:black; stroke-width:1px;" />
<line x1="44.0" y1="327.5" x2="44.0" y2="352.0" style="stroke:black; stroke-width:1px;" />
<line x1="44.0" y1="359.5" x2="44.0" y2="384.0" style="stroke:black; stroke-width:1px;" />
<line x1="44.0" y1="391.5" x2="44.0" y2="416.0" style="stroke:black; stroke-width:1px;" />
<line x1="84.75" y1="135.5" x2="125.5" y2="160.0" style="stroke:black; stroke-width:1px;" />
<line x1="125.5" y1="167.5" x2="97.5" y2="192.0" style="stroke:black; stroke-width:1px;" />
<line x1="125.5" y1="167.5" x2="153.5" y2="192.0" style="stroke:black; stroke-width:1px;" />
<line x1="153.5" y1="199.5" x2="153.5" y2="224.0" style="stroke:black; stroke-width:1px;" />
<line x1="153.5" y1="231.5" x2="153.5" y2="256.0" style="stroke:black; stroke-width:1px;" />
<line x1="153.5" y1="263.5" x2="153.5" y2="288.0" style="stroke:black; stroke-width:1px;" />
<line x1="153.5" y1="295.5" x2="153.5" y2="320.0" style="stroke:black; stroke-width:1px;" />
<line x1="153.5" y1="327.5" x2="153.5" y2="352.0" style="stroke:black; stroke-width:1px;" />
<line x1="153.5" y1="359.5" x2="153.5" y2="384.0" style="stroke:black; stroke-width:1px;" />
<line x1="153.5" y1="391.5" x2="153.5" y2="416.0" style="stroke:black; stroke-width:1px;" />
<line x1="153.5" y1="423.5" x2="153.5" y2="448.0" style="stroke:black; stroke-width:1px;" />
<line x1="153.5" y1="455.5" x2="153.5" y2="480.0" style="stroke:black; stroke-width:1px;" />
<line x1="102.75" y1="103.5" x2="120.75" y2="128.0" style="stroke:black; stroke-width:1px;" />
<line x1="502.125" y1="39.5" x2="280.75" y2="64.0" style="stroke:black; stroke-width:1px;" />
<line x1="280.75" y1="71.5" x2="280.75" y2="96.0" style="stroke:black; stroke-width:1px;" />
<line x1="280.75" y1="103.5" x2="262.75" y2="128.0" style="stroke:black; stroke-width:1px;" />
<line x1="262.75" y1="135.5" x2="222.0" y2="160.0" style="stroke:black; stroke-width:1px;" />
<line x1="222.0" y1="167.5" x2="222.0" y2="192.0" style="stroke:black; stroke-width:1px;" />
<line x1="222.0" y1="199.5" x2="222.0" y2="224.0" style="stroke:black; stroke-width:1px;" />
<line x1="222.0" y1="231.5" x2="222.0" y2="256.0" style="stroke:black; stroke-width:1px;" />
<line x1="222.0" y1="263.5" x2="222.0" y2="288.0" style="stroke:black; stroke-width:1px;" />
<line x1="222.0" y1="295.5" x2="222.0" y2="320.0" style="stroke:black; stroke-width:1px;" />
<line x1="222.0" y1="327.5" x2="222.0" y2="352.0" style="stroke:black; stroke-width:1px;" />
<line x1="222.0" y1="359.5" x2="222.0" y2="384.0" style="stroke:black; stroke-width:1px;" />
<line x1="222.0" y1="391.5" x2="222.0" y2="416.0" style="stroke:black; stroke-width:1px;" />
<line x1="262.75" y1="135.5" x2="303.5" y2="160.0" style="stroke:black; stroke-width:1px;" />
<line x1="303.5" y1="167.5" x2="275.5" y2="192.0" style="stroke:black; stroke-width:1px;" />
<line x1="303.5" y1="167.5" x2="331.5" y2="192.0" style="stroke:black; stroke-width:1px;" />
<line x1="331.5" y1="199.5" x2="331.5" y2="224.0" style="stroke:black; stroke-width:1px;" />
<line x1="331.5" y1="231.5" x2="331.5" y2="256.0" style="stroke:black; stroke-width:1px;" />
<line x1="331.5" y1="263.5" x2="331.5" y2="288.0" style="stroke:black; stroke-width:1px;" />
<line x1="331.5" y1="295.5" x2="331.5" y2="320.0" style="stroke:black; stroke-width:1px;" />
<line x1="331.5" y1="327.5" x2="331.5" y2="352.0" style="stroke:black; stroke-width:1px;" />
<line x1="331.5" y1="359.5" x2="331.5" y2="384.0" style="stroke:black; stroke-width:1px;" />
<line x1="331.5" y1="391.5" x2="331.5" y2="416.0" style="stroke:black; stroke-width:1px;" />
<line x1="331.5" y1="423.5" x2="331.5" y2="448.0" style="stroke:black; stroke-width:1px;" />
<line x1="331.5" y1="455.5" x2="331.5" y2="480.0" style="stroke:black; stroke-width:1px;" />
<line x1="280.75" y1="103.5" x2="298.75" y2="128.0" style="stroke:black; stroke-width:1px;" />
<line x1="502.125" y1="39.5" x2="572.125" y2="64.0" style="stroke:black; stroke-width:1px;" />
<line x1="572.125" y1="71.5" x2="572.125" y2="96.0" style="stroke:black; stroke-width:1px;" />
<line x1="572.125" y1="103.5" x2="408.0" y2="128.0" style="stroke:black; stroke-width:1px;" />
<line x1="572.125" y1="103.5" x2="431.0" y2="128.0" style="stroke:black; stroke-width:1px;" />
<line x1="431.0" y1="135.5" x2="431.0" y2="160.0" style="stroke:black; stroke-width:1px;" />
<line x1="431.0" y1="167.5" x2="431.0" y2="192.0" style="stroke:black; stroke-width:1px;" />
<line x1="431.0" y1="199.5" x2="386.0" y2="224.0" style="stroke:black; stroke-width:1px;" />
<line x1="386.0" y1="231.5" x2="386.0" y2="256.0" style="stroke:black; stroke-width:1px;" />
<line x1="386.0" y1="263.5" x2="386.0" y2="288.0" style="stroke:black; stroke-width:1px;" />
<line x1="386.0" y1="295.5" x2="386.0" y2="320.0" style="stroke:black; stroke-width:1px;" />
<line x1="386.0" y1="327.5" x2="386.0" y2="352.0" style="stroke:black; stroke-width:1px;" />
<line x1="431.0" y1="199.5" x2="431.0" y2="224.0" style="stroke:black; stroke-width:1px;" />
<line x1="431.0" y1="199.5" x2="476.0" y2="224.0" style="stroke:black; stroke-width:1px;" />
<line x1="476.0" y1="231.5" x2="476.0" y2="256.0" style="stroke:black; stroke-width:1px;" />
<line x1="476.0" y1="263.5" x2="476.0" y2="288.0" style="stroke:black; stroke-width:1px;" />
<line x1="476.0" y1="295.5" x2="476.0" y2="320.0" style="stroke:black; stroke-width:1px;" />
<line x1="476.0" y1="327.5" x2="476.0" y2="352.0" style="stroke:black; stroke-width:1px;" />
<line x1="476.0" y1="359.5" x2="476.0" y2="384.0" style="stroke:black; stroke-width:1px;" />
<line x1="572.125" y1="103.5" x2="510.875" y2="128.0" style="stroke:black; stroke-width:1px;" />
<line x1="572.125" y1="103.5" x2="593.25" y2="128.0" style="stroke:black; stroke-width:1px;" />
<line x1="593.25" y1="135.5" x2="566.75" y2="160.0" style="stroke:black; stroke-width:1px;" />
<line x1="593.25" y1="135.5" x2="577.75" y2="160.0" style="stroke:black; stroke-width:1px;" />
<line x1="593.25" y1="135.5" x2="598.75" y2="160.0" style="stroke:black; stroke-width:1px;" />
<line x1="598.75" y1="167.5" x2="598.75" y2="192.0" style="stroke:black; stroke-width:1px;" />
<line x1="598.75" y1="199.5" x2="580.75" y2="224.0" style="stroke:black; stroke-width:1px;" />
<line x1="580.75" y1="231.5" x2="540.0" y2="256.0" style="stroke:black; stroke-width:1px;" />
<line x1="540.0" y1="263.5" x2="540.0" y2="288.0" style="stroke:black; stroke-width:1px;" />
<line x1="540.0" y1="295.5" x2="540.0" y2="320.0" style="stroke:black; stroke-width:1px;" />
<line x1="540.0" y1="327.5" x2="540.0" y2="352.0" style="stroke:black; stroke-width:1px;" />
<line x1="540.0" y1="359.5" x2="540.0" y2="384.0" style="stroke:black; stroke-width:1px;" />
<line x1="540.0" y1="391.5" x2="540.0" y2="416.0" style="stroke:black; stroke-width:1px;" />
<line x1="540.0" y1="423.5" x2="540.0" y2="448.0" style="stroke:black; stroke-width:1px;" />
<line x1="540.0" y1="455.5" x2="540.0" y2="480.0" style="stroke:black; stroke-width:1px;" />
<line x1="540.0" y1="487.5" x2="540.0" y2="512.0" style="stroke:black; stroke-width:1px;" />
<line x1="580.75" y1="231.5" x2="621.5" y2="256.0" style="stroke:black; stroke-width:1px;" />
<line x1="621.5" y1="263.5" x2="605.25" y2="288.0" style="stroke:black; stroke-width:1px;" />
<line x1="621.5" y1="263.5" x2="637.75" y2="288.0" style="stroke:black; stroke-width:1px;" />
<line x1="637.75" y1="295.5" x2="637.75" y2="320.0" style="stroke:black; stroke-width:1px;" />
<line x1="637.75" y1="327.5" x2="637.75" y2="352.0" style="stroke:black; stroke-width:1px;" />
<line x1="637.75" y1="359.5" x2="637.75" y2="384.0" style="stroke:black; stroke-width:1px;" />
<line x1="637.75" y1="391.5" x2="637.75" y2="416.0" style="stroke:black; stroke-width:1px;" />
<line x1="637.75" y1="423.5" x2="637.75" y2="448.0" style="stroke:black; stroke-width:1px;" />
<line x1="637.75" y1="455.5" x2="637.75" y2="480.0" style="stroke:black; stroke-width:1px;" />
<line x1="637.75" y1="487.5" x2="637.75" y2="512.0" style="stroke:black; stroke-width:1px;" />
<line x1="637.75" y1="519.5" x2="637.75" y2="544.0" style="stroke:black; stroke-width:1px;" />
<line x1="598.75" y1="199.5" x2="616.75" y2="224.0" style="stroke:black; stroke-width:1px;" />
<line x1="593.25" y1="135.5" x2="619.75" y2="160.0" style="stroke:black; stroke-width:1px;" />
<line x1="572.125" y1="103.5" x2="736.25" y2="128.0" style="stroke:black; stroke-width:1px;" />
<line x1="736.25" y1="135.5" x2="713.0" y2="160.0" style="stroke:black; stroke-width:1px;" />
<line x1="736.25" y1="135.5" x2="735.5" y2="160.0" style="stroke:black; stroke-width:1px;" />
<line x1="736.25" y1="135.5" x2="759.5" y2="160.0" style="stroke:black; stroke-width:1px;" />
<line x1="759.5" y1="167.5" x2="733.0" y2="192.0" style="stroke:black; stroke-width:1px;" />
<line x1="759.5" y1="167.5" x2="744.0" y2="192.0" style="stroke:black; stroke-width:1px;" />
<line x1="759.5" y1="167.5" x2="765.0" y2="192.0" style="stroke:black; stroke-width:1px;" />
<line x1="765.0" y1="199.5" x2="765.0" y2="224.0" style="stroke:black; stroke-width:1px;" />
<line x1="765.0" y1="231.5" x2="747.0" y2="256.0" style="stroke:black; stroke-width:1px;" />
<line x1="747.0" y1="263.5" x2="706.25" y2="288.0" style="stroke:black; stroke-width:1px;" />
<line x1="706.25" y1="295.5" x2="706.25" y2="320.0" style="stroke:black; stroke-width:1px;" />
<line x1="706.25" y1="327.5" x2="706.25" y2="352.0" style="stroke:black; stroke-width:1px;" />
<line x1="706.25" y1="359.5" x2="706.25" y2="384.0" style="stroke:black; stroke-width:1px;" />
<line x1="706.25" y1="391.5" x2="706.25" y2="416.0" style="stroke:black; stroke-width:1px;" />
<line x1="706.25" y1="423.5" x2="706.25" y2="448.0" style="stroke:black; stroke-width:1px;" />
<line x1="706.25" y1="455.5" x2="706.25" y2="480.0" style="stroke:black; stroke-width:1px;" />
<line x1="706.25" y1="487.5" x2="706.25" y2="512.0" style="stroke:black; stroke-width:1px;" />
<line x1="706.25" y1="519.5" x2="706.25" y2="544.0" style="stroke:black; stroke-width:1px;" />
<line x1="747.0" y1="263.5" x2="787.75" y2="288.0" style="stroke:black; stroke-width:1px;" />
<line x1="787.75" y1="295.5" x2="772.0" y2="320.0" style="stroke:black; stroke-width:1px;" />
<line x1="787.75" y1="295.5" x2="803.5" y2="320.0" style="stroke:black; stroke-width:1px;" />
<line x1="803.5" y1="327.5" x2="803.5" y2="352.0" style="stroke:black; stroke-width:1px;" />
<line x1="803.5" y1="359.5" x2="803.5" y2="384.0" style="stroke:black; stroke-width:1px;" />
<line x1="803.5" y1="391.5" x2="803.5" y2="416.0" style="stroke:black; stroke-width:1px;" />
<line x1="803.5" y1="423.5" x2="803.5" y2="448.0" style="stroke:black; stroke-width:1px;" />
<line x1="803.5" y1="455.5" x2="803.5" y2="480.0" style="stroke:black; stroke-width:1px;" />
<line x1="803.5" y1="487.5" x2="803.5" y2="512.0" style="stroke:black; stroke-width:1px;" />
<line x1="803.5" y1="519.5" x2="803.5" y2="544.0" style="stroke:black; stroke-width:1px;" />
<line x1="803.5" y1="551.5" x2="803.5" y2="576.0" style="stroke:black; stroke-width:1px;" />
<line x1="765.0" y1="231.5" x2="783.0" y2="256.0" style="stroke:black; stroke-width:1px;" />
<line x1="759.5" y1="167.5" x2="786.0" y2="192.0" style="stroke:black; stroke-width:1px;" />
<line x1="502.125" y1="39.5" x2="901.5" y2="64.0" style="stroke:black; stroke-width:1px;" />
<line x1="901.5" y1="71.5" x2="901.5" y2="96.0" style="stroke:black; stroke-width:1px;" />
<line x1="901.5" y1="103.5" x2="875.5" y2="128.0" style="stroke:black; stroke-width:1px;" />
<line x1="875.5" y1="135.5" x2="875.5" y2="160.0" style="stroke:black; stroke-width:1px;" />
<line x1="875.5" y1="167.5" x2="875.5" y2="192.0" style="stroke:black; stroke-width:1px;" />
<line x1="875.5" y1="199.5" x2="875.5" y2="224.0" style="stroke:black; stroke-width:1px;" />
<line x1="875.5" y1="231.5" x2="875.5" y2="256.0" style="stroke:black; stroke-width:1px;" />
<line x1="875.5" y1="263.5" x2="875.5" y2="288.0" style="stroke:black; stroke-width:1px;" />
<line x1="875.5" y1="295.5" x2="875.5" y2="320.0" style="stroke:black; stroke-width:1px;" />
<line x1="875.5" y1="327.5" x2="852.0" y2="352.0" style="stroke:black; stroke-width:1px;" />
<line x1="852.0" y1="359.5" x2="852.0" y2="384.0" style="stroke:black; stroke-width:1px;" />
<line x1="875.5" y1="327.5" x2="899.0" y2="352.0" style="stroke:black; stroke-width:1px;" />
<line x1="899.0" y1="359.5" x2="899.0" y2="384.0" style="stroke:black; stroke-width:1px;" />
<line x1="899.0" y1="391.5" x2="871.5" y2="416.0" style="stroke:black; stroke-width:1px;" />
<line x1="899.0" y1="391.5" x2="899.0" y2="416.0" style="stroke:black; stroke-width:1px;" />
<line x1="899.0" y1="423.5" x2="864.0" y2="448.0" style="stroke:black; stroke-width:1px;" />
<line x1="864.0" y1="455.5" x2="864.0" y2="480.0" style="stroke:black; stroke-width:1px;" />
<line x1="864.0" y1="487.5" x2="864.0" y2="512.0" style="stroke:black; stroke-width:1px;" />
<line x1="864.0" y1="519.5" x2="864.0" y2="544.0" style="stroke:black; stroke-width:1px;" />
<line x1="864.0" y1="551.5" x2="864.0" y2="576.0" style="stroke:black; stroke-width:1px;" />
<line x1="864.0" y1="583.5" x2="864.0" y2="608.0" style="stroke:black; stroke-width:1px;" />
<line x1="864.0" y1="615.5" x2="864.0" y2="640.0" style="stroke:black; stroke-width:1px;" />
<line x1="864.0" y1="647.5" x2="864.0" y2="672.0" style="stroke:black; stroke-width:1px;" />
<line x1="899.0" y1="423.5" x2="899.0" y2="448.0" style="stroke:black; stroke-width:1px;" />
<line x1="899.0" y1="423.5" x2="934.0" y2="448.0" style="stroke:black; stroke-width:1px;" />
<line x1="934.0" y1="455.5" x2="934.0" y2="480.0" style="stroke:black; stroke-width:1px;" />
<line x1="934.0" y1="487.5" x2="934.0" y2="512.0" style="stroke:black; stroke-width:1px;" />
<line x1="934.0" y1="519.5" x2="934.0" y2="544.0" style="stroke:black; stroke-width:1px;" />
<line x1="934.0" y1="551.5" x2="934.0" y2="576.0" style="stroke:black; stroke-width:1px;" />
<line x1="934.0" y1="583.5" x2="934.0" y2="608.0" style="stroke:black; stroke-width:1px;" />
<line x1="934.0" y1="615.5" x2="934.0" y2="640.0" style="stroke:black; stroke-width:1px;" />
<line x1="934.0" y1="647.5" x2="934.0" y2="672.0" style="stroke:black; stroke-width:1px;" />
<line x1="899.0" y1="391.5" x2="926.5" y2="416.0" style="stroke:black; stroke-width:1px;" />
<line x1="901.5" y1="103.5" x2="927.5" y2="128.0" style="stroke:black; stroke-width:1px;" />
<line x1="526.375" y1="7.5" x2="550.625" y2="32.0" style="stroke:black; stroke-width:1px;" />
<rect x="29.0" y="384.0" width="30.0" height="15.0" style="fill:orange; stroke:rgb(0,0,0);" rx="1"/>
<text x="31" y="393" style="font-family:sans-serif;font-size:10px;">
name
</text>
<rect x="133.5" y="416.0" width="40.0" height="15.0" style="fill:orange; stroke:rgb(0,0,0);" rx="1"/>
<text x="135" y="425" style="font-family:sans-serif;font-size:10px;">
number
</text>
<rect x="591.0" y="256.0" width="61.0" height="15.0" style="fill:orange; stroke:rgb(0,0,0);" rx="1"/>
<text x="593" y="265" style="font-family:sans-serif;font-size:10px;">
assign_part
</text>
<rect x="90.75" y="64.0" width="24.0" height="15.0" style="fill:orange; stroke:rgb(0,0,0);" rx="1"/>
<text x="92" y="73" style="font-family:sans-serif;font-size:10px;">
stmt
</text>
<rect x="118.75" y="128.0" width="4.0" height="15.0" style="fill:orange; stroke:rgb(0,0,0);" rx="1"/>
<text x="120" y="137" style="font-family:sans-serif;font-size:10px;">

</text>
<rect x="732.0" y="160.0" width="7.0" height="15.0" style="fill:orange; stroke:rgb(0,0,0);" rx="1"/>
<text x="734" y="169" style="font-family:sans-serif;font-size:10px;">
:
</text>
<rect x="850.5" y="608.0" width="27.0" height="15.0" style="fill:orange; stroke:rgb(0,0,0);" rx="1"/>
<text x="852" y="617" style="font-family:sans-serif;font-size:10px;">
atom
</text>
<rect x="839.5" y="384.0" width="25.0" height="15.0" style="fill:orange; stroke:rgb(0,0,0);" rx="1"/>
<text x="841" y="393" style="font-family:sans-serif;font-size:10px;">
print
</text>
<rect x="532.125" y="96.0" width="80.0" height="15.0" style="fill:orange; stroke:rgb(0,0,0);" rx="1"/>
<text x="534" y="105" style="font-family:sans-serif;font-size:10px;">
compound_stmt
</text>
<rect x="140.5" y="352.0" width="26.0" height="15.0" style="fill:orange; stroke:rgb(0,0,0);" rx="1"/>
<text x="142" y="361" style="font-family:sans-serif;font-size:10px;">
expr
</text>
<rect x="402.0" y="160.0" width="58.0" height="15.0" style="fill:orange; stroke:rgb(0,0,0);" rx="1"/>
<text x="404" y="169" style="font-family:sans-serif;font-size:10px;">
logical_test
</text>
<rect x="109.5" y="192.0" width="88.0" height="15.0" style="fill:orange; stroke:rgb(0,0,0);" rx="1"/>
<text x="111" y="201" style="font-family:sans-serif;font-size:10px;">
testlist_star_expr
</text>
<rect x="148.5" y="480.0" width="10.0" height="15.0" style="fill:orange; stroke:rgb(0,0,0);" rx="1"/>
<text x="150" y="489" style="font-family:sans-serif;font-size:10px;">
3
</text>
<rect x="785.0" y="544.0" width="37.0" height="15.0" style="fill:orange; stroke:rgb(0,0,0);" rx="1"/>
<text x="787" y="553" style="font-family:sans-serif;font-size:10px;">
integer
</text>
<rect x="270.5" y="192.0" width="10.0" height="15.0" style="fill:orange; stroke:rgb(0,0,0);" rx="1"/>
<text x="272" y="201" style="font-family:sans-serif;font-size:10px;">
=
</text>
<rect x="371.0" y="320.0" width="30.0" height="15.0" style="fill:orange; stroke:rgb(0,0,0);" rx="1"/>
<text x="373" y="329" style="font-family:sans-serif;font-size:10px;">
name
</text>
<rect x="624.75" y="416.0" width="26.0" height="15.0" style="fill:orange; stroke:rgb(0,0,0);" rx="1"/>
<text x="626" y="425" style="font-family:sans-serif;font-size:10px;">
expr
</text>
<rect x="30.5" y="352.0" width="27.0" height="15.0" style="fill:orange; stroke:rgb(0,0,0);" rx="1"/>
<text x="32" y="361" style="font-family:sans-serif;font-size:10px;">
atom
</text>
<rect x="535.0" y="512.0" width="10.0" height="15.0" style="fill:orange; stroke:rgb(0,0,0);" rx="1"/>
<text x="537" y="521" style="font-family:sans-serif;font-size:10px;">
y
</text>
<rect x="904.0" y="544.0" width="60.0" height="15.0" style="fill:orange; stroke:rgb(0,0,0);" rx="1"/>
<text x="906" y="553" style="font-family:sans-serif;font-size:10px;">
comparison
</text>
<rect x="525.0" y="480.0" width="30.0" height="15.0" style="fill:orange; stroke:rgb(0,0,0);" rx="1"/>
<text x="527" y="489" style="font-family:sans-serif;font-size:10px;">
name
</text>
<rect x="372.5" y="288.0" width="27.0" height="15.0" style="fill:orange; stroke:rgb(0,0,0);" rx="1"/>
<text x="374" y="297" style="font-family:sans-serif;font-size:10px;">
atom
</text>
<rect x="921.0" y="576.0" width="26.0" height="15.0" style="fill:orange; stroke:rgb(0,0,0);" rx="1"/>
<text x="923" y="585" style="font-family:sans-serif;font-size:10px;">
expr
</text>
<rect x="296.75" y="128.0" width="4.0" height="15.0" style="fill:orange; stroke:rgb(0,0,0);" rx="1"/>
<text x="298" y="137" style="font-family:sans-serif;font-size:10px;">

</text>
<rect x="851.0" y="576.0" width="26.0" height="15.0" style="fill:orange; stroke:rgb(0,0,0);" rx="1"/>
<text x="853" y="585" style="font-family:sans-serif;font-size:10px;">
expr
</text>
<rect x="619.25" y="512.0" width="37.0" height="15.0" style="fill:orange; stroke:rgb(0,0,0);" rx="1"/>
<text x="621" y="521" style="font-family:sans-serif;font-size:10px;">
integer
</text>
<rect x="864.5" y="224.0" width="22.0" height="15.0" style="fill:orange; stroke:rgb(0,0,0);" rx="1"/>
<text x="866" y="233" style="font-family:sans-serif;font-size:10px;">
test
</text>
<rect x="178.0" y="160.0" width="88.0" height="15.0" style="fill:orange; stroke:rgb(0,0,0);" rx="1"/>
<text x="180" y="169" style="font-family:sans-serif;font-size:10px;">
testlist_star_expr
</text>
<rect x="846.5" y="256.0" width="58.0" height="15.0" style="fill:orange; stroke:rgb(0,0,0);" rx="1"/>
<text x="848" y="265" style="font-family:sans-serif;font-size:10px;">
logical_test
</text>
<rect x="839.5" y="448.0" width="49.0" height="15.0" style="fill:orange; stroke:rgb(0,0,0);" rx="1"/>
<text x="841" y="457" style="font-family:sans-serif;font-size:10px;">
argument
</text>
<rect x="835.0" y="512.0" width="58.0" height="15.0" style="fill:orange; stroke:rgb(0,0,0);" rx="1"/>
<text x="837" y="521" style="font-family:sans-serif;font-size:10px;">
logical_test
</text>
<rect x="136.0" y="224.0" width="35.0" height="15.0" style="fill:orange; stroke:rgb(0,0,0);" rx="1"/>
<text x="138" y="233" style="font-family:sans-serif;font-size:10px;">
testlist
</text>
<rect x="923.0" y="480.0" width="22.0" height="15.0" style="fill:orange; stroke:rgb(0,0,0);" rx="1"/>
<text x="925" y="489" style="font-family:sans-serif;font-size:10px;">
test
</text>
<rect x="423.0" y="224.0" width="16.0" height="15.0" style="fill:orange; stroke:rgb(0,0,0);" rx="1"/>
<text x="425" y="233" style="font-family:sans-serif;font-size:10px;">
==
</text>
<rect x="867.5" y="416.0" width="8.0" height="15.0" style="fill:orange; stroke:rgb(0,0,0);" rx="1"/>
<text x="869" y="425" style="font-family:sans-serif;font-size:10px;">
(
</text>
<rect x="620.25" y="288.0" width="35.0" height="15.0" style="fill:orange; stroke:rgb(0,0,0);" rx="1"/>
<text x="622" y="297" style="font-family:sans-serif;font-size:10px;">
testlist
</text>
<rect x="693.25" y="448.0" width="26.0" height="15.0" style="fill:orange; stroke:rgb(0,0,0);" rx="1"/>
<text x="695" y="457" style="font-family:sans-serif;font-size:10px;">
expr
</text>
<rect x="853.0" y="480.0" width="22.0" height="15.0" style="fill:orange; stroke:rgb(0,0,0);" rx="1"/>
<text x="855" y="489" style="font-family:sans-serif;font-size:10px;">
test
</text>
<rect x="302.5" y="288.0" width="58.0" height="15.0" style="fill:orange; stroke:rgb(0,0,0);" rx="1"/>
<text x="304" y="297" style="font-family:sans-serif;font-size:10px;">
logical_test
</text>
<rect x="123.5" y="320.0" width="60.0" height="15.0" style="fill:orange; stroke:rgb(0,0,0);" rx="1"/>
<text x="125" y="329" style="font-family:sans-serif;font-size:10px;">
comparison
</text>
<rect x="72.75" y="96.0" width="60.0" height="15.0" style="fill:orange; stroke:rgb(0,0,0);" rx="1"/>
<text x="74" y="105" style="font-family:sans-serif;font-size:10px;">
simple_stmt
</text>
<rect x="15.0" y="256.0" width="58.0" height="15.0" style="fill:orange; stroke:rgb(0,0,0);" rx="1"/>
<text x="17" y="265" style="font-family:sans-serif;font-size:10px;">
logical_test
</text>
<rect x="919.0" y="640.0" width="30.0" height="15.0" style="fill:orange; stroke:rgb(0,0,0);" rx="1"/>
<text x="921" y="649" style="font-family:sans-serif;font-size:10px;">
name
</text>
<rect x="774.5" y="384.0" width="58.0" height="15.0" style="fill:orange; stroke:rgb(0,0,0);" rx="1"/>
<text x="776" y="393" style="font-family:sans-serif;font-size:10px;">
logical_test
</text>
<rect x="626.75" y="320.0" width="22.0" height="15.0" style="fill:orange; stroke:rgb(0,0,0);" rx="1"/>
<text x="628" y="329" style="font-family:sans-serif;font-size:10px;">
test
</text>
<rect x="731.0" y="192.0" width="4.0" height="15.0" style="fill:orange; stroke:rgb(0,0,0);" rx="1"/>
<text x="733" y="201" style="font-family:sans-serif;font-size:10px;">

</text>
<rect x="403.0" y="128.0" width="10.0" height="15.0" style="fill:orange; stroke:rgb(0,0,0);" rx="1"/>
<text x="405" y="137" style="font-family:sans-serif;font-size:10px;">
if
</text>
<rect x="31.0" y="320.0" width="26.0" height="15.0" style="fill:orange; stroke:rgb(0,0,0);" rx="1"/>
<text x="33" y="329" style="font-family:sans-serif;font-size:10px;">
expr
</text>
<rect x="608.75" y="352.0" width="58.0" height="15.0" style="fill:orange; stroke:rgb(0,0,0);" rx="1"/>
<text x="610" y="361" style="font-family:sans-serif;font-size:10px;">
logical_test
</text>
<rect x="753.0" y="192.0" width="24.0" height="15.0" style="fill:orange; stroke:rgb(0,0,0);" rx="1"/>
<text x="755" y="201" style="font-family:sans-serif;font-size:10px;">
stmt
</text>
<rect x="617.75" y="160.0" width="4.0" height="15.0" style="fill:orange; stroke:rgb(0,0,0);" rx="1"/>
<text x="619" y="169" style="font-family:sans-serif;font-size:10px;">

</text>
<rect x="456.0" y="320.0" width="40.0" height="15.0" style="fill:orange; stroke:rgb(0,0,0);" rx="1"/>
<text x="458" y="329" style="font-family:sans-serif;font-size:10px;">
number
</text>
<rect x="838.5" y="352.0" width="27.0" height="15.0" style="fill:orange; stroke:rgb(0,0,0);" rx="1"/>
<text x="840" y="361" style="font-family:sans-serif;font-size:10px;">
atom
</text>
<rect x="135.0" y="448.0" width="37.0" height="15.0" style="fill:orange; stroke:rgb(0,0,0);" rx="1"/>
<text x="137" y="457" style="font-family:sans-serif;font-size:10px;">
integer
</text>
<rect x="688.75" y="320.0" width="35.0" height="15.0" style="fill:orange; stroke:rgb(0,0,0);" rx="1"/>
<text x="690" y="329" style="font-family:sans-serif;font-size:10px;">
testlist
</text>
<rect x="33.0" y="224.0" width="22.0" height="15.0" style="fill:orange; stroke:rgb(0,0,0);" rx="1"/>
<text x="35" y="233" style="font-family:sans-serif;font-size:10px;">
test
</text>
<rect x="268.75" y="64.0" width="24.0" height="15.0" style="fill:orange; stroke:rgb(0,0,0);" rx="1"/>
<text x="270" y="73" style="font-family:sans-serif;font-size:10px;">
stmt
</text>
<rect x="192.0" y="288.0" width="60.0" height="15.0" style="fill:orange; stroke:rgb(0,0,0);" rx="1"/>
<text x="194" y="297" style="font-family:sans-serif;font-size:10px;">
comparison
</text>
<rect x="522.5" y="288.0" width="35.0" height="15.0" style="fill:orange; stroke:rgb(0,0,0);" rx="1"/>
<text x="524" y="297" style="font-family:sans-serif;font-size:10px;">
testlist
</text>
<rect x="527.0" y="416.0" width="26.0" height="15.0" style="fill:orange; stroke:rgb(0,0,0);" rx="1"/>
<text x="529" y="425" style="font-family:sans-serif;font-size:10px;">
expr
</text>
<rect x="607.75" y="384.0" width="60.0" height="15.0" style="fill:orange; stroke:rgb(0,0,0);" rx="1"/>
<text x="609" y="393" style="font-family:sans-serif;font-size:10px;">
comparison
</text>
<rect x="532.625" y="32.0" width="36.0" height="15.0" style="fill:orange; stroke:rgb(0,0,0);" rx="1"/>
<text x="534" y="41" style="font-family:sans-serif;font-size:10px;">
&lt;EOF&gt;
</text>
<rect x="705.25" y="128.0" width="62.0" height="15.0" style="fill:orange; stroke:rgb(0,0,0);" rx="1"/>
<text x="707" y="137" style="font-family:sans-serif;font-size:10px;">
else_clause
</text>
<rect x="909.5" y="448.0" width="49.0" height="15.0" style="fill:orange; stroke:rgb(0,0,0);" rx="1"/>
<text x="911" y="457" style="font-family:sans-serif;font-size:10px;">
argument
</text>
<rect x="356.0" y="224.0" width="60.0" height="15.0" style="fill:orange; stroke:rgb(0,0,0);" rx="1"/>
<text x="358" y="233" style="font-family:sans-serif;font-size:10px;">
comparison
</text>
<rect x="140.0" y="384.0" width="27.0" height="15.0" style="fill:orange; stroke:rgb(0,0,0);" rx="1"/>
<text x="142" y="393" style="font-family:sans-serif;font-size:10px;">
atom
</text>
<rect x="614.75" y="224.0" width="4.0" height="15.0" style="fill:orange; stroke:rgb(0,0,0);" rx="1"/>
<text x="616" y="233" style="font-family:sans-serif;font-size:10px;">

</text>
<rect x="526.5" y="448.0" width="27.0" height="15.0" style="fill:orange; stroke:rgb(0,0,0);" rx="1"/>
<text x="528" y="457" style="font-family:sans-serif;font-size:10px;">
atom
</text>
<rect x="845.5" y="288.0" width="60.0" height="15.0" style="fill:orange; stroke:rgb(0,0,0);" rx="1"/>
<text x="847" y="297" style="font-family:sans-serif;font-size:10px;">
comparison
</text>
<rect x="463.0" y="256.0" width="26.0" height="15.0" style="fill:orange; stroke:rgb(0,0,0);" rx="1"/>
<text x="465" y="265" style="font-family:sans-serif;font-size:10px;">
expr
</text>
<rect x="124.5" y="288.0" width="58.0" height="15.0" style="fill:orange; stroke:rgb(0,0,0);" rx="1"/>
<text x="126" y="297" style="font-family:sans-serif;font-size:10px;">
logical_test
</text>
<rect x="318.5" y="352.0" width="26.0" height="15.0" style="fill:orange; stroke:rgb(0,0,0);" rx="1"/>
<text x="320" y="361" style="font-family:sans-serif;font-size:10px;">
expr
</text>
<rect x="632.75" y="544.0" width="10.0" height="15.0" style="fill:orange; stroke:rgb(0,0,0);" rx="1"/>
<text x="634" y="553" style="font-family:sans-serif;font-size:10px;">
1
</text>
<rect x="676.25" y="416.0" width="60.0" height="15.0" style="fill:orange; stroke:rgb(0,0,0);" rx="1"/>
<text x="678" y="425" style="font-family:sans-serif;font-size:10px;">
comparison
</text>
<rect x="858.0" y="192.0" width="35.0" height="15.0" style="fill:orange; stroke:rgb(0,0,0);" rx="1"/>
<text x="860" y="201" style="font-family:sans-serif;font-size:10px;">
testlist
</text>
<rect x="57.75" y="128.0" width="54.0" height="15.0" style="fill:orange; stroke:rgb(0,0,0);" rx="1"/>
<text x="59" y="137" style="font-family:sans-serif;font-size:10px;">
small_stmt
</text>
<rect x="871.5" y="96.0" width="60.0" height="15.0" style="fill:orange; stroke:rgb(0,0,0);" rx="1"/>
<text x="873" y="105" style="font-family:sans-serif;font-size:10px;">
simple_stmt
</text>
<rect x="862.5" y="320.0" width="26.0" height="15.0" style="fill:orange; stroke:rgb(0,0,0);" rx="1"/>
<text x="864" y="329" style="font-family:sans-serif;font-size:10px;">
expr
</text>
<rect x="871.5" y="384.0" width="55.0" height="15.0" style="fill:orange; stroke:rgb(0,0,0);" rx="1"/>
<text x="873" y="393" style="font-family:sans-serif;font-size:10px;">
arguments
</text>
<rect x="617.75" y="480.0" width="40.0" height="15.0" style="fill:orange; stroke:rgb(0,0,0);" rx="1"/>
<text x="619" y="489" style="font-family:sans-serif;font-size:10px;">
number
</text>
<rect x="311.5" y="416.0" width="40.0" height="15.0" style="fill:orange; stroke:rgb(0,0,0);" rx="1"/>
<text x="313" y="425" style="font-family:sans-serif;font-size:10px;">
number
</text>
<rect x="478.625" y="32.0" width="47.0" height="15.0" style="fill:orange; stroke:rgb(0,0,0);" rx="1"/>
<text x="480" y="41" style="font-family:sans-serif;font-size:10px;">
file_input
</text>
<rect x="560.125" y="64.0" width="24.0" height="15.0" style="fill:orange; stroke:rgb(0,0,0);" rx="1"/>
<text x="562" y="73" style="font-family:sans-serif;font-size:10px;">
stmt
</text>
<rect x="742.0" y="192.0" width="4.0" height="15.0" style="fill:orange; stroke:rgb(0,0,0);" rx="1"/>
<text x="744" y="201" style="font-family:sans-serif;font-size:10px;">

</text>
<rect x="457.5" y="352.0" width="37.0" height="15.0" style="fill:orange; stroke:rgb(0,0,0);" rx="1"/>
<text x="459" y="361" style="font-family:sans-serif;font-size:10px;">
integer
</text>
<rect x="313.0" y="448.0" width="37.0" height="15.0" style="fill:orange; stroke:rgb(0,0,0);" rx="1"/>
<text x="315" y="457" style="font-family:sans-serif;font-size:10px;">
integer
</text>
<rect x="765.0" y="320.0" width="14.0" height="15.0" style="fill:orange; stroke:rgb(0,0,0);" rx="1"/>
<text x="767" y="329" style="font-family:sans-serif;font-size:10px;">
-=
</text>
<rect x="568.75" y="192.0" width="60.0" height="15.0" style="fill:orange; stroke:rgb(0,0,0);" rx="1"/>
<text x="570" y="201" style="font-family:sans-serif;font-size:10px;">
simple_stmt
</text>
<rect x="0.0" y="160.0" width="88.0" height="15.0" style="fill:orange; stroke:rgb(0,0,0);" rx="1"/>
<text x="2" y="169" style="font-family:sans-serif;font-size:10px;">
testlist_star_expr
</text>
<rect x="895.5" y="448.0" width="7.0" height="15.0" style="fill:orange; stroke:rgb(0,0,0);" rx="1"/>
<text x="897" y="457" style="font-family:sans-serif;font-size:10px;">
,
</text>
<rect x="235.75" y="128.0" width="54.0" height="15.0" style="fill:orange; stroke:rgb(0,0,0);" rx="1"/>
<text x="237" y="137" style="font-family:sans-serif;font-size:10px;">
small_stmt
</text>
<rect x="217.0" y="416.0" width="10.0" height="15.0" style="fill:orange; stroke:rgb(0,0,0);" rx="1"/>
<text x="219" y="425" style="font-family:sans-serif;font-size:10px;">
y
</text>
<rect x="514.875" y="0.0" width="23.0" height="15.0" style="fill:orange; stroke:rgb(0,0,0);" rx="1"/>
<text x="516" y="9" style="font-family:sans-serif;font-size:10px;">
root
</text>
<rect x="859.0" y="672.0" width="10.0" height="15.0" style="fill:orange; stroke:rgb(0,0,0);" rx="1"/>
<text x="861" y="681" style="font-family:sans-serif;font-size:10px;">
x
</text>
<rect x="905.0" y="512.0" width="58.0" height="15.0" style="fill:orange; stroke:rgb(0,0,0);" rx="1"/>
<text x="907" y="521" style="font-family:sans-serif;font-size:10px;">
logical_test
</text>
<rect x="909.5" y="128.0" width="36.0" height="15.0" style="fill:orange; stroke:rgb(0,0,0);" rx="1"/>
<text x="911" y="137" style="font-family:sans-serif;font-size:10px;">
&lt;EOF&gt;
</text>
<rect x="624.25" y="448.0" width="27.0" height="15.0" style="fill:orange; stroke:rgb(0,0,0);" rx="1"/>
<text x="626" y="457" style="font-family:sans-serif;font-size:10px;">
atom
</text>
<rect x="677.25" y="384.0" width="58.0" height="15.0" style="fill:orange; stroke:rgb(0,0,0);" rx="1"/>
<text x="679" y="393" style="font-family:sans-serif;font-size:10px;">
logical_test
</text>
<rect x="586.75" y="160.0" width="24.0" height="15.0" style="fill:orange; stroke:rgb(0,0,0);" rx="1"/>
<text x="588" y="169" style="font-family:sans-serif;font-size:10px;">
stmt
</text>
<rect x="326.5" y="480.0" width="10.0" height="15.0" style="fill:orange; stroke:rgb(0,0,0);" rx="1"/>
<text x="328" y="489" style="font-family:sans-serif;font-size:10px;">
9
</text>
<rect x="471.0" y="384.0" width="10.0" height="15.0" style="fill:orange; stroke:rgb(0,0,0);" rx="1"/>
<text x="473" y="393" style="font-family:sans-serif;font-size:10px;">
3
</text>
<rect x="287.5" y="192.0" width="88.0" height="15.0" style="fill:orange; stroke:rgb(0,0,0);" rx="1"/>
<text x="289" y="201" style="font-family:sans-serif;font-size:10px;">
testlist_star_expr
</text>
<rect x="920.5" y="608.0" width="27.0" height="15.0" style="fill:orange; stroke:rgb(0,0,0);" rx="1"/>
<text x="922" y="617" style="font-family:sans-serif;font-size:10px;">
atom
</text>
<rect x="26.5" y="192.0" width="35.0" height="15.0" style="fill:orange; stroke:rgb(0,0,0);" rx="1"/>
<text x="28" y="201" style="font-family:sans-serif;font-size:10px;">
testlist
</text>
<rect x="92.5" y="192.0" width="10.0" height="15.0" style="fill:orange; stroke:rgb(0,0,0);" rx="1"/>
<text x="94" y="201" style="font-family:sans-serif;font-size:10px;">
=
</text>
<rect x="462.5" y="288.0" width="27.0" height="15.0" style="fill:orange; stroke:rgb(0,0,0);" rx="1"/>
<text x="464" y="297" style="font-family:sans-serif;font-size:10px;">
atom
</text>
<rect x="507.375" y="128.0" width="7.0" height="15.0" style="fill:orange; stroke:rgb(0,0,0);" rx="1"/>
<text x="509" y="137" style="font-family:sans-serif;font-size:10px;">
:
</text>
<rect x="790.5" y="448.0" width="26.0" height="15.0" style="fill:orange; stroke:rgb(0,0,0);" rx="1"/>
<text x="792" y="457" style="font-family:sans-serif;font-size:10px;">
expr
</text>
<rect x="579.75" y="128.0" width="27.0" height="15.0" style="fill:orange; stroke:rgb(0,0,0);" rx="1"/>
<text x="581" y="137" style="font-family:sans-serif;font-size:10px;">
suite
</text>
<rect x="831.5" y="160.0" width="88.0" height="15.0" style="fill:orange; stroke:rgb(0,0,0);" rx="1"/>
<text x="833" y="169" style="font-family:sans-serif;font-size:10px;">
testlist_star_expr
</text>
<rect x="14.0" y="288.0" width="60.0" height="15.0" style="fill:orange; stroke:rgb(0,0,0);" rx="1"/>
<text x="16" y="297" style="font-family:sans-serif;font-size:10px;">
comparison
</text>
<rect x="510.0" y="384.0" width="60.0" height="15.0" style="fill:orange; stroke:rgb(0,0,0);" rx="1"/>
<text x="512" y="393" style="font-family:sans-serif;font-size:10px;">
comparison
</text>
<rect x="922.5" y="416.0" width="8.0" height="15.0" style="fill:orange; stroke:rgb(0,0,0);" rx="1"/>
<text x="924" y="425" style="font-family:sans-serif;font-size:10px;">
)
</text>
<rect x="209.0" y="320.0" width="26.0" height="15.0" style="fill:orange; stroke:rgb(0,0,0);" rx="1"/>
<text x="211" y="329" style="font-family:sans-serif;font-size:10px;">
expr
</text>
<rect x="553.75" y="224.0" width="54.0" height="15.0" style="fill:orange; stroke:rgb(0,0,0);" rx="1"/>
<text x="555" y="233" style="font-family:sans-serif;font-size:10px;">
small_stmt
</text>
<rect x="273.0" y="160.0" width="61.0" height="15.0" style="fill:orange; stroke:rgb(0,0,0);" rx="1"/>
<text x="275" y="169" style="font-family:sans-serif;font-size:10px;">
assign_part
</text>
<rect x="142.5" y="256.0" width="22.0" height="15.0" style="fill:orange; stroke:rgb(0,0,0);" rx="1"/>
<text x="144" y="265" style="font-family:sans-serif;font-size:10px;">
test
</text>
<rect x="695.25" y="352.0" width="22.0" height="15.0" style="fill:orange; stroke:rgb(0,0,0);" rx="1"/>
<text x="697" y="361" style="font-family:sans-serif;font-size:10px;">
test
</text>
<rect x="691.25" y="512.0" width="30.0" height="15.0" style="fill:orange; stroke:rgb(0,0,0);" rx="1"/>
<text x="693" y="521" style="font-family:sans-serif;font-size:10px;">
name
</text>
<rect x="757.25" y="288.0" width="61.0" height="15.0" style="fill:orange; stroke:rgb(0,0,0);" rx="1"/>
<text x="759" y="297" style="font-family:sans-serif;font-size:10px;">
assign_part
</text>
<rect x="318.0" y="384.0" width="27.0" height="15.0" style="fill:orange; stroke:rgb(0,0,0);" rx="1"/>
<text x="320" y="393" style="font-family:sans-serif;font-size:10px;">
atom
</text>
<rect x="597.25" y="288.0" width="16.0" height="15.0" style="fill:orange; stroke:rgb(0,0,0);" rx="1"/>
<text x="599" y="297" style="font-family:sans-serif;font-size:10px;">
+=
</text>
<rect x="798.5" y="576.0" width="10.0" height="15.0" style="fill:orange; stroke:rgb(0,0,0);" rx="1"/>
<text x="800" y="585" style="font-family:sans-serif;font-size:10px;">
1
</text>
<rect x="889.5" y="64.0" width="24.0" height="15.0" style="fill:orange; stroke:rgb(0,0,0);" rx="1"/>
<text x="891" y="73" style="font-family:sans-serif;font-size:10px;">
stmt
</text>
<rect x="790.0" y="480.0" width="27.0" height="15.0" style="fill:orange; stroke:rgb(0,0,0);" rx="1"/>
<text x="792" y="489" style="font-family:sans-serif;font-size:10px;">
atom
</text>
<rect x="834.0" y="544.0" width="60.0" height="15.0" style="fill:orange; stroke:rgb(0,0,0);" rx="1"/>
<text x="836" y="553" style="font-family:sans-serif;font-size:10px;">
comparison
</text>
<rect x="207.0" y="384.0" width="30.0" height="15.0" style="fill:orange; stroke:rgb(0,0,0);" rx="1"/>
<text x="209" y="393" style="font-family:sans-serif;font-size:10px;">
name
</text>
<rect x="204.5" y="192.0" width="35.0" height="15.0" style="fill:orange; stroke:rgb(0,0,0);" rx="1"/>
<text x="206" y="201" style="font-family:sans-serif;font-size:10px;">
testlist
</text>
<rect x="692.75" y="480.0" width="27.0" height="15.0" style="fill:orange; stroke:rgb(0,0,0);" rx="1"/>
<text x="694" y="489" style="font-family:sans-serif;font-size:10px;">
atom
</text>
<rect x="39.0" y="416.0" width="10.0" height="15.0" style="fill:orange; stroke:rgb(0,0,0);" rx="1"/>
<text x="41" y="425" style="font-family:sans-serif;font-size:10px;">
x
</text>
<rect x="208.5" y="352.0" width="27.0" height="15.0" style="fill:orange; stroke:rgb(0,0,0);" rx="1"/>
<text x="210" y="361" style="font-family:sans-serif;font-size:10px;">
atom
</text>
<rect x="381.0" y="352.0" width="10.0" height="15.0" style="fill:orange; stroke:rgb(0,0,0);" rx="1"/>
<text x="383" y="361" style="font-family:sans-serif;font-size:10px;">
x
</text>
<rect x="250.75" y="96.0" width="60.0" height="15.0" style="fill:orange; stroke:rgb(0,0,0);" rx="1"/>
<text x="252" y="105" style="font-family:sans-serif;font-size:10px;">
simple_stmt
</text>
<rect x="848.5" y="128.0" width="54.0" height="15.0" style="fill:orange; stroke:rgb(0,0,0);" rx="1"/>
<text x="850" y="137" style="font-family:sans-serif;font-size:10px;">
small_stmt
</text>
<rect x="373.0" y="256.0" width="26.0" height="15.0" style="fill:orange; stroke:rgb(0,0,0);" rx="1"/>
<text x="375" y="265" style="font-family:sans-serif;font-size:10px;">
expr
</text>
<rect x="783.5" y="512.0" width="40.0" height="15.0" style="fill:orange; stroke:rgb(0,0,0);" rx="1"/>
<text x="785" y="521" style="font-family:sans-serif;font-size:10px;">
number
</text>
<rect x="849.0" y="640.0" width="30.0" height="15.0" style="fill:orange; stroke:rgb(0,0,0);" rx="1"/>
<text x="851" y="649" style="font-family:sans-serif;font-size:10px;">
name
</text>
<rect x="420.0" y="128.0" width="22.0" height="15.0" style="fill:orange; stroke:rgb(0,0,0);" rx="1"/>
<text x="422" y="137" style="font-family:sans-serif;font-size:10px;">
test
</text>
<rect x="301.5" y="320.0" width="60.0" height="15.0" style="fill:orange; stroke:rgb(0,0,0);" rx="1"/>
<text x="303" y="329" style="font-family:sans-serif;font-size:10px;">
comparison
</text>
<rect x="575.75" y="160.0" width="4.0" height="15.0" style="fill:orange; stroke:rgb(0,0,0);" rx="1"/>
<text x="577" y="169" style="font-family:sans-serif;font-size:10px;">

</text>
<rect x="662.25" y="288.0" width="88.0" height="15.0" style="fill:orange; stroke:rgb(0,0,0);" rx="1"/>
<text x="664" y="297" style="font-family:sans-serif;font-size:10px;">
testlist_star_expr
</text>
<rect x="314.0" y="224.0" width="35.0" height="15.0" style="fill:orange; stroke:rgb(0,0,0);" rx="1"/>
<text x="316" y="233" style="font-family:sans-serif;font-size:10px;">
testlist
</text>
<rect x="193.0" y="256.0" width="58.0" height="15.0" style="fill:orange; stroke:rgb(0,0,0);" rx="1"/>
<text x="195" y="265" style="font-family:sans-serif;font-size:10px;">
logical_test
</text>
<rect x="882.5" y="416.0" width="33.0" height="15.0" style="fill:orange; stroke:rgb(0,0,0);" rx="1"/>
<text x="884" y="425" style="font-family:sans-serif;font-size:10px;">
arglist
</text>
<rect x="929.0" y="672.0" width="10.0" height="15.0" style="fill:orange; stroke:rgb(0,0,0);" rx="1"/>
<text x="931" y="681" style="font-family:sans-serif;font-size:10px;">
y
</text>
<rect x="95.0" y="160.0" width="61.0" height="15.0" style="fill:orange; stroke:rgb(0,0,0);" rx="1"/>
<text x="97" y="169" style="font-family:sans-serif;font-size:10px;">
assign_part
</text>
<rect x="511.0" y="352.0" width="58.0" height="15.0" style="fill:orange; stroke:rgb(0,0,0);" rx="1"/>
<text x="513" y="361" style="font-family:sans-serif;font-size:10px;">
logical_test
</text>
<rect x="773.5" y="416.0" width="60.0" height="15.0" style="fill:orange; stroke:rgb(0,0,0);" rx="1"/>
<text x="775" y="425" style="font-family:sans-serif;font-size:10px;">
comparison
</text>
<rect x="701.0" y="160.0" width="24.0" height="15.0" style="fill:orange; stroke:rgb(0,0,0);" rx="1"/>
<text x="703" y="169" style="font-family:sans-serif;font-size:10px;">
else
</text>
<rect x="320.5" y="256.0" width="22.0" height="15.0" style="fill:orange; stroke:rgb(0,0,0);" rx="1"/>
<text x="322" y="265" style="font-family:sans-serif;font-size:10px;">
test
</text>
<rect x="564.75" y="160.0" width="4.0" height="15.0" style="fill:orange; stroke:rgb(0,0,0);" rx="1"/>
<text x="566" y="169" style="font-family:sans-serif;font-size:10px;">

</text>
<rect x="883.5" y="352.0" width="31.0" height="15.0" style="fill:orange; stroke:rgb(0,0,0);" rx="1"/>
<text x="885" y="361" style="font-family:sans-serif;font-size:10px;">
trailer
</text>
<rect x="781.0" y="256.0" width="4.0" height="15.0" style="fill:orange; stroke:rgb(0,0,0);" rx="1"/>
<text x="783" y="265" style="font-family:sans-serif;font-size:10px;">

</text>
<rect x="784.0" y="192.0" width="4.0" height="15.0" style="fill:orange; stroke:rgb(0,0,0);" rx="1"/>
<text x="786" y="201" style="font-family:sans-serif;font-size:10px;">

</text>
<rect x="211.0" y="224.0" width="22.0" height="15.0" style="fill:orange; stroke:rgb(0,0,0);" rx="1"/>
<text x="213" y="233" style="font-family:sans-serif;font-size:10px;">
test
</text>
<rect x="401.0" y="192.0" width="60.0" height="15.0" style="fill:orange; stroke:rgb(0,0,0);" rx="1"/>
<text x="403" y="201" style="font-family:sans-serif;font-size:10px;">
comparison
</text>
<rect x="735.0" y="224.0" width="60.0" height="15.0" style="fill:orange; stroke:rgb(0,0,0);" rx="1"/>
<text x="737" y="233" style="font-family:sans-serif;font-size:10px;">
simple_stmt
</text>
<rect x="792.5" y="352.0" width="22.0" height="15.0" style="fill:orange; stroke:rgb(0,0,0);" rx="1"/>
<text x="794" y="361" style="font-family:sans-serif;font-size:10px;">
test
</text>
<rect x="786.0" y="320.0" width="35.0" height="15.0" style="fill:orange; stroke:rgb(0,0,0);" rx="1"/>
<text x="788" y="329" style="font-family:sans-serif;font-size:10px;">
testlist
</text>
<rect x="720.0" y="256.0" width="54.0" height="15.0" style="fill:orange; stroke:rgb(0,0,0);" rx="1"/>
<text x="722" y="265" style="font-family:sans-serif;font-size:10px;">
small_stmt
</text>
<rect x="746.0" y="160.0" width="27.0" height="15.0" style="fill:orange; stroke:rgb(0,0,0);" rx="1"/>
<text x="748" y="169" style="font-family:sans-serif;font-size:10px;">
suite
</text>
<rect x="701.25" y="544.0" width="10.0" height="15.0" style="fill:orange; stroke:rgb(0,0,0);" rx="1"/>
<text x="703" y="553" style="font-family:sans-serif;font-size:10px;">
y
</text>
<rect x="496.0" y="256.0" width="88.0" height="15.0" style="fill:orange; stroke:rgb(0,0,0);" rx="1"/>
<text x="498" y="265" style="font-family:sans-serif;font-size:10px;">
testlist_star_expr
</text>
<rect x="529.0" y="320.0" width="22.0" height="15.0" style="fill:orange; stroke:rgb(0,0,0);" rx="1"/>
<text x="531" y="329" style="font-family:sans-serif;font-size:10px;">
test
</text>
<rect x="446.0" y="224.0" width="60.0" height="15.0" style="fill:orange; stroke:rgb(0,0,0);" rx="1"/>
<text x="448" y="233" style="font-family:sans-serif;font-size:10px;">
comparison
</text>
</svg>