<svg width="2070.2000000000003" height="1039.5" xmlns="http://www.w3.org/2000/svg" xmlns:xlink="http://www.w3.org/1999/xlink"><line x1="887.625" y1="7.5" x2="863.375" y2="32.0" style="stroke:black; stroke-width:1px;" />
<line x1="863.375" y1="39.5" x2="162.25" y2="64.0" style="stroke:black; stroke-width:1px;" />
<line x1="863.375" y1="39.5" x2="183.25" y2="64.0" style="stroke:black; stroke-width:1px;" />
<line x1="183.25" y1="71.5" x2="183.25" y2="96.0" style="stroke:black; stroke-width:1px;" />
<line x1="183.25" y1="103.5" x2="183.25" y2="128.0" style="stroke:black; stroke-width:1px;" />
<line x1="183.25" y1="135.5" x2="39.5" y2="160.0" style="stroke:black; stroke-width:1px;" />
<line x1="183.25" y1="135.5" x2="71.5" y2="160.0" style="stroke:black; stroke-width:1px;" />
<line x1="71.5" y1="167.5" x2="71.5" y2="192.0" style="stroke:black; stroke-width:1px;" />
<line x1="183.25" y1="135.5" x2="97.5" y2="160.0" style="stroke:black; stroke-width:1px;" />
<line x1="183.25" y1="135.5" x2="141.5" y2="160.0" style="stroke:black; stroke-width:1px;" />
<line x1="141.5" y1="167.5" x2="141.5" y2="192.0" style="stroke:black; stroke-width:1px;" />
<line x1="141.5" y1="199.5" x2="45.5" y2="224.0" style="stroke:black; stroke-width:1px;" />
<line x1="45.5" y1="231.5" x2="45.5" y2="256.0" style="stroke:black; stroke-width:1px;" />
<line x1="45.5" y1="263.5" x2="45.5" y2="288.0" style="stroke:black; stroke-width:1px;" />
<line x1="45.5" y1="295.5" x2="45.5" y2="320.0" style="stroke:black; stroke-width:1px;" />
<line x1="141.5" y1="199.5" x2="93.5" y2="224.0" style="stroke:black; stroke-width:1px;" />
<line x1="141.5" y1="199.5" x2="141.5" y2="224.0" style="stroke:black; stroke-width:1px;" />
<line x1="141.5" y1="231.5" x2="141.5" y2="256.0" style="stroke:black; stroke-width:1px;" />
<line x1="141.5" y1="199.5" x2="189.5" y2="224.0" style="stroke:black; stroke-width:1px;" />
<line x1="141.5" y1="199.5" x2="237.5" y2="224.0" style="stroke:black; stroke-width:1px;" />
<line x1="237.5" y1="231.5" x2="237.5" y2="256.0" style="stroke:black; stroke-width:1px;" />
<line x1="237.5" y1="263.5" x2="237.5" y2="288.0" style="stroke:black; stroke-width:1px;" />
<line x1="237.5" y1="295.5" x2="237.5" y2="320.0" style="stroke:black; stroke-width:1px;" />
<line x1="183.25" y1="135.5" x2="219.83333333333326" y2="160.0" style="stroke:black; stroke-width:1px;" />
<line x1="183.25" y1="135.5" x2="268.66666666666663" y2="160.0" style="stroke:black; stroke-width:1px;" />
<line x1="183.25" y1="135.5" x2="327.0" y2="160.0" style="stroke:black; stroke-width:1px;" />
<line x1="327.0" y1="167.5" x2="327.0" y2="192.0" style="stroke:black; stroke-width:1px;" />
<line x1="327.0" y1="199.5" x2="309.0" y2="224.0" style="stroke:black; stroke-width:1px;" />
<line x1="309.0" y1="231.5" x2="309.0" y2="256.0" style="stroke:black; stroke-width:1px;" />
<line x1="327.0" y1="199.5" x2="345.0" y2="224.0" style="stroke:black; stroke-width:1px;" />
<line x1="863.375" y1="39.5" x2="528.5" y2="64.0" style="stroke:black; stroke-width:1px;" />
<line x1="528.5" y1="71.5" x2="528.5" y2="96.0" style="stroke:black; stroke-width:1px;" />
<line x1="528.5" y1="103.5" x2="528.5" y2="128.0" style="stroke:black; stroke-width:1px;" />
<line x1="528.5" y1="135.5" x2="357.5" y2="160.0" style="stroke:black; stroke-width:1px;" />
<line x1="528.5" y1="135.5" x2="389.5" y2="160.0" style="stroke:black; stroke-width:1px;" />
<line x1="389.5" y1="167.5" x2="389.5" y2="192.0" style="stroke:black; stroke-width:1px;" />
<line x1="528.5" y1="135.5" x2="439.9375" y2="160.0" style="stroke:black; stroke-width:1px;" />
<line x1="528.5" y1="135.5" x2="508.375" y2="160.0" style="stroke:black; stroke-width:1px;" />
<line x1="508.375" y1="167.5" x2="444.0" y2="192.0" style="stroke:black; stroke-width:1px;" />
<line x1="444.0" y1="199.5" x2="395.0" y2="224.0" style="stroke:black; stroke-width:1px;" />
<line x1="395.0" y1="231.5" x2="395.0" y2="256.0" style="stroke:black; stroke-width:1px;" />
<line x1="395.0" y1="263.5" x2="395.0" y2="288.0" style="stroke:black; stroke-width:1px;" />
<line x1="395.0" y1="295.5" x2="395.0" y2="320.0" style="stroke:black; stroke-width:1px;" />
<line x1="444.0" y1="199.5" x2="444.0" y2="224.0" style="stroke:black; stroke-width:1px;" />
<line x1="444.0" y1="199.5" x2="493.0" y2="224.0" style="stroke:black; stroke-width:1px;" />
<line x1="493.0" y1="231.5" x2="493.0" y2="256.0" style="stroke:black; stroke-width:1px;" />
<line x1="493.0" y1="263.5" x2="493.0" y2="288.0" style="stroke:black; stroke-width:1px;" />
<line x1="493.0" y1="295.5" x2="493.0" y2="320.0" style="stroke:black; stroke-width:1px;" />
<line x1="508.375" y1="167.5" x2="518.375" y2="192.0" style="stroke:black; stroke-width:1px;" />
<line x1="508.375" y1="167.5" x2="572.75" y2="192.0" style="stroke:black; stroke-width:1px;" />
<line x1="572.75" y1="199.5" x2="543.5" y2="224.0" style="stroke:black; stroke-width:1px;" />
<line x1="572.75" y1="199.5" x2="602.0" y2="224.0" style="stroke:black; stroke-width:1px;" />
<line x1="602.0" y1="231.5" x2="602.0" y2="256.0" style="stroke:black; stroke-width:1px;" />
<line x1="602.0" y1="263.5" x2="602.0" y2="288.0" style="stroke:black; stroke-width:1px;" />
<line x1="528.5" y1="135.5" x2="588.5833333333334" y2="160.0" style="stroke:black; stroke-width:1px;" />
<line x1="528.5" y1="135.5" x2="639.2916666666667" y2="160.0" style="stroke:black; stroke-width:1px;" />
<line x1="528.5" y1="135.5" x2="699.5" y2="160.0" style="stroke:black; stroke-width:1px;" />
<line x1="699.5" y1="167.5" x2="699.5" y2="192.0" style="stroke:black; stroke-width:1px;" />
<line x1="699.5" y1="199.5" x2="681.5" y2="224.0" style="stroke:black; stroke-width:1px;" />
<line x1="681.5" y1="231.5" x2="681.5" y2="256.0" style="stroke:black; stroke-width:1px;" />
<line x1="699.5" y1="199.5" x2="717.5" y2="224.0" style="stroke:black; stroke-width:1px;" />
<line x1="863.375" y1="39.5" x2="1047.5" y2="64.0" style="stroke:black; stroke-width:1px;" />
<line x1="1047.5" y1="71.5" x2="1047.5" y2="96.0" style="stroke:black; stroke-width:1px;" />
<line x1="1047.5" y1="103.5" x2="1047.5" y2="128.0" style="stroke:black; stroke-width:1px;" />
<line x1="1047.5" y1="135.5" x2="730.0" y2="160.0" style="stroke:black; stroke-width:1px;" />
<line x1="1047.5" y1="135.5" x2="762.0" y2="160.0" style="stroke:black; stroke-width:1px;" />
<line x1="762.0" y1="167.5" x2="762.0" y2="192.0" style="stroke:black; stroke-width:1px;" />
<line x1="1047.5" y1="135.5" x2="893.4375" y2="160.0" style="stroke:black; stroke-width:1px;" />
<line x1="1047.5" y1="135.5" x2="1042.875" y2="160.0" style="stroke:black; stroke-width:1px;" />
<line x1="1042.875" y1="167.5" x2="816.5" y2="192.0" style="stroke:black; stroke-width:1px;" />
<line x1="816.5" y1="199.5" x2="767.5" y2="224.0" style="stroke:black; stroke-width:1px;" />
<line x1="767.5" y1="231.5" x2="767.5" y2="256.0" style="stroke:black; stroke-width:1px;" />
<line x1="767.5" y1="263.5" x2="767.5" y2="288.0" style="stroke:black; stroke-width:1px;" />
<line x1="767.5" y1="295.5" x2="767.5" y2="320.0" style="stroke:black; stroke-width:1px;" />
<line x1="816.5" y1="199.5" x2="816.5" y2="224.0" style="stroke:black; stroke-width:1px;" />
<line x1="816.5" y1="199.5" x2="865.5" y2="224.0" style="stroke:black; stroke-width:1px;" />
<line x1="865.5" y1="231.5" x2="865.5" y2="256.0" style="stroke:black; stroke-width:1px;" />
<line x1="865.5" y1="263.5" x2="865.5" y2="288.0" style="stroke:black; stroke-width:1px;" />
<line x1="865.5" y1="295.5" x2="865.5" y2="320.0" style="stroke:black; stroke-width:1px;" />
<line x1="1042.875" y1="167.5" x2="893.125" y2="192.0" style="stroke:black; stroke-width:1px;" />
<line x1="1042.875" y1="167.5" x2="942.25" y2="192.0" style="stroke:black; stroke-width:1px;" />
<line x1="942.25" y1="199.5" x2="914.0" y2="224.0" style="stroke:black; stroke-width:1px;" />
<line x1="942.25" y1="199.5" x2="970.5" y2="224.0" style="stroke:black; stroke-width:1px;" />
<line x1="970.5" y1="231.5" x2="947.0" y2="256.0" style="stroke:black; stroke-width:1px;" />
<line x1="947.0" y1="263.5" x2="947.0" y2="288.0" style="stroke:black; stroke-width:1px;" />
<line x1="970.5" y1="231.5" x2="972.5" y2="256.0" style="stroke:black; stroke-width:1px;" />
<line x1="970.5" y1="231.5" x2="994.0" y2="256.0" style="stroke:black; stroke-width:1px;" />
<line x1="994.0" y1="263.5" x2="994.0" y2="288.0" style="stroke:black; stroke-width:1px;" />
<line x1="994.0" y1="295.5" x2="994.0" y2="320.0" style="stroke:black; stroke-width:1px;" />
<line x1="994.0" y1="327.5" x2="994.0" y2="352.0" style="stroke:black; stroke-width:1px;" />
<line x1="994.0" y1="359.5" x2="994.0" y2="384.0" style="stroke:black; stroke-width:1px;" />
<line x1="994.0" y1="391.5" x2="994.0" y2="416.0" style="stroke:black; stroke-width:1px;" />
<line x1="994.0" y1="423.5" x2="994.0" y2="448.0" style="stroke:black; stroke-width:1px;" />
<line x1="1042.875" y1="167.5" x2="1012.125" y2="192.0" style="stroke:black; stroke-width:1px;" />
<line x1="1042.875" y1="167.5" x2="1109.5" y2="192.0" style="stroke:black; stroke-width:1px;" />
<line x1="1109.5" y1="199.5" x2="1060.5" y2="224.0" style="stroke:black; stroke-width:1px;" />
<line x1="1060.5" y1="231.5" x2="1060.5" y2="256.0" style="stroke:black; stroke-width:1px;" />
<line x1="1060.5" y1="263.5" x2="1060.5" y2="288.0" style="stroke:black; stroke-width:1px;" />
<line x1="1060.5" y1="295.5" x2="1060.5" y2="320.0" style="stroke:black; stroke-width:1px;" />
<line x1="1109.5" y1="199.5" x2="1109.5" y2="224.0" style="stroke:black; stroke-width:1px;" />
<line x1="1109.5" y1="199.5" x2="1158.5" y2="224.0" style="stroke:black; stroke-width:1px;" />
<line x1="1158.5" y1="231.5" x2="1158.5" y2="256.0" style="stroke:black; stroke-width:1px;" />
<line x1="1158.5" y1="263.5" x2="1158.5" y2="288.0" style="stroke:black; stroke-width:1px;" />
<line x1="1158.5" y1="295.5" x2="1158.5" y2="320.0" style="stroke:black; stroke-width:1px;" />
<line x1="1042.875" y1="167.5" x2="1183.875" y2="192.0" style="stroke:black; stroke-width:1px;" />
<line x1="1042.875" y1="167.5" x2="1238.25" y2="192.0" style="stroke:black; stroke-width:1px;" />
<line x1="1238.25" y1="199.5" x2="1209.0" y2="224.0" style="stroke:black; stroke-width:1px;" />
<line x1="1238.25" y1="199.5" x2="1267.5" y2="224.0" style="stroke:black; stroke-width:1px;" />
<line x1="1267.5" y1="231.5" x2="1244.0" y2="256.0" style="stroke:black; stroke-width:1px;" />
<line x1="1244.0" y1="263.5" x2="1244.0" y2="288.0" style="stroke:black; stroke-width:1px;" />
<line x1="1267.5" y1="231.5" x2="1269.5" y2="256.0" style="stroke:black; stroke-width:1px;" />
<line x1="1267.5" y1="231.5" x2="1291.0" y2="256.0" style="stroke:black; stroke-width:1px;" />
<line x1="1291.0" y1="263.5" x2="1291.0" y2="288.0" style="stroke:black; stroke-width:1px;" />
<line x1="1291.0" y1="295.5" x2="1291.0" y2="320.0" style="stroke:black; stroke-width:1px;" />
<line x1="1291.0" y1="327.5" x2="1291.0" y2="352.0" style="stroke:black; stroke-width:1px;" />
<line x1="1291.0" y1="359.5" x2="1291.0" y2="384.0" style="stroke:black; stroke-width:1px;" />
<line x1="1291.0" y1="391.5" x2="1291.0" y2="416.0" style="stroke:black; stroke-width:1px;" />
<line x1="1291.0" y1="423.5" x2="1291.0" y2="448.0" style="stroke:black; stroke-width:1px;" />
<line x1="1042.875" y1="167.5" x2="1269.25" y2="192.0" style="stroke:black; stroke-width:1px;" />
<line x1="1047.5" y1="135.5" x2="1166.75" y2="160.0" style="stroke:black; stroke-width:1px;" />
<line x1="1047.5" y1="135.5" x2="1261.125" y2="160.0" style="stroke:black; stroke-width:1px;" />
<line x1="1047.5" y1="135.5" x2="1365.0" y2="160.0" style="stroke:black; stroke-width:1px;" />
<line x1="1365.0" y1="167.5" x2="1365.0" y2="192.0" style="stroke:black; stroke-width:1px;" />
<line x1="1365.0" y1="199.5" x2="1347.0" y2="224.0" style="stroke:black; stroke-width:1px;" />
<line x1="1347.0" y1="231.5" x2="1347.0" y2="256.0" style="stroke:black; stroke-width:1px;" />
<line x1="1365.0" y1="199.5" x2="1383.0" y2="224.0" style="stroke:black; stroke-width:1px;" />
<line x1="863.375" y1="39.5" x2="1564.5" y2="64.0" style="stroke:black; stroke-width:1px;" />
<line x1="1564.5" y1="71.5" x2="1564.5" y2="96.0" style="stroke:black; stroke-width:1px;" />
<line x1="1564.5" y1="103.5" x2="1564.5" y2="128.0" style="stroke:black; stroke-width:1px;" />
<line x1="1564.5" y1="135.5" x2="1395.5" y2="160.0" style="stroke:black; stroke-width:1px;" />
<line x1="1564.5" y1="135.5" x2="1427.5" y2="160.0" style="stroke:black; stroke-width:1px;" />
<line x1="1427.5" y1="167.5" x2="1427.5" y2="192.0" style="stroke:black; stroke-width:1px;" />
<line x1="1564.5" y1="135.5" x2="1477.1875" y2="160.0" style="stroke:black; stroke-width:1px;" />
<line x1="1564.5" y1="135.5" x2="1544.875" y2="160.0" style="stroke:black; stroke-width:1px;" />
<line x1="1544.875" y1="167.5" x2="1482.0" y2="192.0" style="stroke:black; stroke-width:1px;" />
<line x1="1482.0" y1="199.5" x2="1433.0" y2="224.0" style="stroke:black; stroke-width:1px;" />
<line x1="1433.0" y1="231.5" x2="1433.0" y2="256.0" style="stroke:black; stroke-width:1px;" />
<line x1="1433.0" y1="263.5" x2="1433.0" y2="288.0" style="stroke:black; stroke-width:1px;" />
<line x1="1433.0" y1="295.5" x2="1433.0" y2="320.0" style="stroke:black; stroke-width:1px;" />
<line x1="1482.0" y1="199.5" x2="1482.0" y2="224.0" style="stroke:black; stroke-width:1px;" />
<line x1="1482.0" y1="199.5" x2="1531.0" y2="224.0" style="stroke:black; stroke-width:1px;" />
<line x1="1531.0" y1="231.5" x2="1531.0" y2="256.0" style="stroke:black; stroke-width:1px;" />
<line x1="1531.0" y1="263.5" x2="1531.0" y2="288.0" style="stroke:black; stroke-width:1px;" />
<line x1="1531.0" y1="295.5" x2="1531.0" y2="320.0" style="stroke:black; stroke-width:1px;" />
<line x1="1544.875" y1="167.5" x2="1558.625" y2="192.0" style="stroke:black; stroke-width:1px;" />
<line x1="1544.875" y1="167.5" x2="1607.75" y2="192.0" style="stroke:black; stroke-width:1px;" />
<line x1="1607.75" y1="199.5" x2="1579.5" y2="224.0" style="stroke:black; stroke-width:1px;" />
<line x1="1607.75" y1="199.5" x2="1636.0" y2="224.0" style="stroke:black; stroke-width:1px;" />
<line x1="1636.0" y1="231.5" x2="1636.0" y2="256.0" style="stroke:black; stroke-width:1px;" />
<line x1="1636.0" y1="263.5" x2="1636.0" y2="288.0" style="stroke:black; stroke-width:1px;" />
<line x1="1564.5" y1="135.5" x2="1624.25" y2="160.0" style="stroke:black; stroke-width:1px;" />
<line x1="1564.5" y1="135.5" x2="1674.125" y2="160.0" style="stroke:black; stroke-width:1px;" />
<line x1="1564.5" y1="135.5" x2="1733.5" y2="160.0" style="stroke:black; stroke-width:1px;" />
<line x1="1733.5" y1="167.5" x2="1733.5" y2="192.0" style="stroke:black; stroke-width:1px;" />
<line x1="1733.5" y1="199.5" x2="1715.5" y2="224.0" style="stroke:black; stroke-width:1px;" />
<line x1="1715.5" y1="231.5" x2="1715.5" y2="256.0" style="stroke:black; stroke-width:1px;" />
<line x1="1733.5" y1="199.5" x2="1751.5" y2="224.0" style="stroke:black; stroke-width:1px;" />
<line x1="887.625" y1="7.5" x2="911.875" y2="32.0" style="stroke:black; stroke-width:1px;" />
<rect x="932.0" y="256.0" width="30.0" height="15.0" style="fill:orange; stroke:rgb(0,0,0);" rx="1"/>
<text x="934" y="265" style="font-family:sans-serif;font-size:10px;">
name
</text>
<rect x="507.5" y="128.0" width="42.0" height="15.0" style="fill:orange; stroke:rgb(0,0,0);" rx="1"/>
<text x="509" y="137" style="font-family:sans-serif;font-size:10px;">
funcdef
</text>
<rect x="1385.5" y="160.0" width="20.0" height="15.0" style="fill:orange; stroke:rgb(0,0,0);" rx="1"/>
<text x="1387" y="169" style="font-family:sans-serif;font-size:10px;">
def
</text>
<rect x="747.0" y="160.0" width="30.0" height="15.0" style="fill:orange; stroke:rgb(0,0,0);" rx="1"/>
<text x="749" y="169" style="font-family:sans-serif;font-size:10px;">
name
</text>
<rect x="1351.5" y="160.0" width="27.0" height="15.0" style="fill:orange; stroke:rgb(0,0,0);" rx="1"/>
<text x="1353" y="169" style="font-family:sans-serif;font-size:10px;">
suite
</text>
<rect x="390.0" y="320.0" width="10.0" height="15.0" style="fill:orange; stroke:rgb(0,0,0);" rx="1"/>
<text x="392" y="329" style="font-family:sans-serif;font-size:10px;">
x
</text>
<rect x="101.0" y="192.0" width="81.0" height="15.0" style="fill:orange; stroke:rgb(0,0,0);" rx="1"/>
<text x="103" y="201" style="font-family:sans-serif;font-size:10px;">
def_parameters
</text>
<rect x="981.0" y="352.0" width="26.0" height="15.0" style="fill:orange; stroke:rgb(0,0,0);" rx="1"/>
<text x="983" y="361" style="font-family:sans-serif;font-size:10px;">
expr
</text>
<rect x="137.5" y="256.0" width="8.0" height="15.0" style="fill:orange; stroke:rgb(0,0,0);" rx="1"/>
<text x="139" y="265" style="font-family:sans-serif;font-size:10px;">
*
</text>
<rect x="1055.5" y="320.0" width="10.0" height="15.0" style="fill:orange; stroke:rgb(0,0,0);" rx="1"/>
<text x="1057" y="329" style="font-family:sans-serif;font-size:10px;">
a
</text>
<rect x="1703.5" y="192.0" width="60.0" height="15.0" style="fill:orange; stroke:rgb(0,0,0);" rx="1"/>
<text x="1705" y="201" style="font-family:sans-serif;font-size:10px;">
simple_stmt
</text>
<rect x="537.5" y="224.0" width="12.0" height="15.0" style="fill:orange; stroke:rgb(0,0,0);" rx="1"/>
<text x="539" y="233" style="font-family:sans-serif;font-size:10px;">
**
</text>
<rect x="215.83333333333326" y="160.0" width="8.0" height="15.0" style="fill:orange; stroke:rgb(0,0,0);" rx="1"/>
<text x="217" y="169" style="font-family:sans-serif;font-size:10px;">
)
</text>
<rect x="722.0" y="256.0" width="91.0" height="15.0" style="fill:orange; stroke:rgb(0,0,0);" rx="1"/>
<text x="724" y="265" style="font-family:sans-serif;font-size:10px;">
named_parameter
</text>
<rect x="1121.0" y="224.0" width="75.0" height="15.0" style="fill:orange; stroke:rgb(0,0,0);" rx="1"/>
<text x="1123" y="233" style="font-family:sans-serif;font-size:10px;">
def_parameter
</text>
<rect x="1631.0" y="288.0" width="10.0" height="15.0" style="fill:orange; stroke:rgb(0,0,0);" rx="1"/>
<text x="1633" y="297" style="font-family:sans-serif;font-size:10px;">
z
</text>
<rect x="1162.75" y="160.0" width="8.0" height="15.0" style="fill:orange; stroke:rgb(0,0,0);" rx="1"/>
<text x="1164" y="169" style="font-family:sans-serif;font-size:10px;">
)
</text>
<rect x="730.0" y="224.0" width="75.0" height="15.0" style="fill:orange; stroke:rgb(0,0,0);" rx="1"/>
<text x="732" y="233" style="font-family:sans-serif;font-size:10px;">
def_parameter
</text>
<rect x="1143.5" y="288.0" width="30.0" height="15.0" style="fill:orange; stroke:rgb(0,0,0);" rx="1"/>
<text x="1145" y="297" style="font-family:sans-serif;font-size:10px;">
name
</text>
<rect x="1180.375" y="192.0" width="7.0" height="15.0" style="fill:orange; stroke:rgb(0,0,0);" rx="1"/>
<text x="1182" y="201" style="font-family:sans-serif;font-size:10px;">
,
</text>
<rect x="380.0" y="288.0" width="30.0" height="15.0" style="fill:orange; stroke:rgb(0,0,0);" rx="1"/>
<text x="382" y="297" style="font-family:sans-serif;font-size:10px;">
name
</text>
<rect x="1335.0" y="192.0" width="60.0" height="15.0" style="fill:orange; stroke:rgb(0,0,0);" rx="1"/>
<text x="1337" y="201" style="font-family:sans-serif;font-size:10px;">
simple_stmt
</text>
<rect x="1493.5" y="224.0" width="75.0" height="15.0" style="fill:orange; stroke:rgb(0,0,0);" rx="1"/>
<text x="1495" y="233" style="font-family:sans-serif;font-size:10px;">
def_parameter
</text>
<rect x="1594.75" y="192.0" width="26.0" height="15.0" style="fill:orange; stroke:rgb(0,0,0);" rx="1"/>
<text x="1596" y="201" style="font-family:sans-serif;font-size:10px;">
args
</text>
<rect x="1026.5" y="128.0" width="42.0" height="15.0" style="fill:orange; stroke:rgb(0,0,0);" rx="1"/>
<text x="1028" y="137" style="font-family:sans-serif;font-size:10px;">
funcdef
</text>
<rect x="1749.5" y="224.0" width="4.0" height="15.0" style="fill:orange; stroke:rgb(0,0,0);" rx="1"/>
<text x="1751" y="233" style="font-family:sans-serif;font-size:10px;">

</text>
<rect x="234.5" y="320.0" width="6.0" height="15.0" style="fill:orange; stroke:rgb(0,0,0);" rx="1"/>
<text x="236" y="329" style="font-family:sans-serif;font-size:10px;">
i
</text>
<rect x="1203.0" y="224.0" width="12.0" height="15.0" style="fill:orange; stroke:rgb(0,0,0);" rx="1"/>
<text x="1205" y="233" style="font-family:sans-serif;font-size:10px;">
**
</text>
<rect x="1320.0" y="224.0" width="54.0" height="15.0" style="fill:orange; stroke:rgb(0,0,0);" rx="1"/>
<text x="1322" y="233" style="font-family:sans-serif;font-size:10px;">
small_stmt
</text>
<rect x="55.5" y="192.0" width="32.0" height="15.0" style="fill:orange; stroke:rgb(0,0,0);" rx="1"/>
<text x="57" y="201" style="font-family:sans-serif;font-size:10px;">
single
</text>
<rect x="1262.0" y="288.0" width="58.0" height="15.0" style="fill:orange; stroke:rgb(0,0,0);" rx="1"/>
<text x="1264" y="297" style="font-family:sans-serif;font-size:10px;">
logical_test
</text>
<rect x="969.0" y="256.0" width="7.0" height="15.0" style="fill:orange; stroke:rgb(0,0,0);" rx="1"/>
<text x="971" y="265" style="font-family:sans-serif;font-size:10px;">
:
</text>
<rect x="715.5" y="224.0" width="4.0" height="15.0" style="fill:orange; stroke:rgb(0,0,0);" rx="1"/>
<text x="717" y="233" style="font-family:sans-serif;font-size:10px;">

</text>
<rect x="1276.0" y="416.0" width="30.0" height="15.0" style="fill:orange; stroke:rgb(0,0,0);" rx="1"/>
<text x="1278" y="425" style="font-family:sans-serif;font-size:10px;">
name
</text>
<rect x="382.5" y="192.0" width="14.0" height="15.0" style="fill:orange; stroke:rgb(0,0,0);" rx="1"/>
<text x="384" y="201" style="font-family:sans-serif;font-size:10px;">
f1
</text>
<rect x="552.25" y="192.0" width="41.0" height="15.0" style="fill:orange; stroke:rgb(0,0,0);" rx="1"/>
<text x="554" y="201" style="font-family:sans-serif;font-size:10px;">
kwargs
</text>
<rect x="1069.0" y="192.0" width="81.0" height="15.0" style="fill:orange; stroke:rgb(0,0,0);" rx="1"/>
<text x="1071" y="201" style="font-family:sans-serif;font-size:10px;">
def_parameters
</text>
<rect x="654.5" y="224.0" width="54.0" height="15.0" style="fill:orange; stroke:rgb(0,0,0);" rx="1"/>
<text x="656" y="233" style="font-family:sans-serif;font-size:10px;">
small_stmt
</text>
<rect x="1266.0" y="256.0" width="7.0" height="15.0" style="fill:orange; stroke:rgb(0,0,0);" rx="1"/>
<text x="1268" y="265" style="font-family:sans-serif;font-size:10px;">
:
</text>
<rect x="1280.0" y="256.0" width="22.0" height="15.0" style="fill:orange; stroke:rgb(0,0,0);" rx="1"/>
<text x="1282" y="265" style="font-family:sans-serif;font-size:10px;">
test
</text>
<rect x="30.5" y="288.0" width="30.0" height="15.0" style="fill:orange; stroke:rgb(0,0,0);" rx="1"/>
<text x="32" y="297" style="font-family:sans-serif;font-size:10px;">
name
</text>
<rect x="910.0" y="224.0" width="8.0" height="15.0" style="fill:orange; stroke:rgb(0,0,0);" rx="1"/>
<text x="912" y="233" style="font-family:sans-serif;font-size:10px;">
*
</text>
<rect x="1412.5" y="160.0" width="30.0" height="15.0" style="fill:orange; stroke:rgb(0,0,0);" rx="1"/>
<text x="1414" y="169" style="font-family:sans-serif;font-size:10px;">
name
</text>
<rect x="1418.0" y="288.0" width="30.0" height="15.0" style="fill:orange; stroke:rgb(0,0,0);" rx="1"/>
<text x="1420" y="297" style="font-family:sans-serif;font-size:10px;">
name
</text>
<rect x="1620.25" y="160.0" width="8.0" height="15.0" style="fill:orange; stroke:rgb(0,0,0);" rx="1"/>
<text x="1622" y="169" style="font-family:sans-serif;font-size:10px;">
)
</text>
<rect x="488.0" y="320.0" width="10.0" height="15.0" style="fill:orange; stroke:rgb(0,0,0);" rx="1"/>
<text x="490" y="329" style="font-family:sans-serif;font-size:10px;">
y
</text>
<rect x="8.0" y="224.0" width="75.0" height="15.0" style="fill:orange; stroke:rgb(0,0,0);" rx="1"/>
<text x="10" y="233" style="font-family:sans-serif;font-size:10px;">
def_parameter
</text>
<rect x="478.0" y="288.0" width="30.0" height="15.0" style="fill:orange; stroke:rgb(0,0,0);" rx="1"/>
<text x="480" y="297" style="font-family:sans-serif;font-size:10px;">
name
</text>
<rect x="828.0" y="224.0" width="75.0" height="15.0" style="fill:orange; stroke:rgb(0,0,0);" rx="1"/>
<text x="830" y="233" style="font-family:sans-serif;font-size:10px;">
def_parameter
</text>
<rect x="1720.0" y="160.0" width="27.0" height="15.0" style="fill:orange; stroke:rgb(0,0,0);" rx="1"/>
<text x="1722" y="169" style="font-family:sans-serif;font-size:10px;">
suite
</text>
<rect x="435.9375" y="160.0" width="8.0" height="15.0" style="fill:orange; stroke:rgb(0,0,0);" rx="1"/>
<text x="437" y="169" style="font-family:sans-serif;font-size:10px;">
(
</text>
<rect x="1035.5" y="64.0" width="24.0" height="15.0" style="fill:orange; stroke:rgb(0,0,0);" rx="1"/>
<text x="1037" y="73" style="font-family:sans-serif;font-size:10px;">
stmt
</text>
<rect x="813.0" y="224.0" width="7.0" height="15.0" style="fill:orange; stroke:rgb(0,0,0);" rx="1"/>
<text x="815" y="233" style="font-family:sans-serif;font-size:10px;">
,
</text>
<rect x="876.125" y="0.0" width="23.0" height="15.0" style="fill:orange; stroke:rgb(0,0,0);" rx="1"/>
<text x="878" y="9" style="font-family:sans-serif;font-size:10px;">
root
</text>
<rect x="1387.5" y="256.0" width="91.0" height="15.0" style="fill:orange; stroke:rgb(0,0,0);" rx="1"/>
<text x="1389" y="265" style="font-family:sans-serif;font-size:10px;">
named_parameter
</text>
<rect x="343.0" y="224.0" width="4.0" height="15.0" style="fill:orange; stroke:rgb(0,0,0);" rx="1"/>
<text x="345" y="233" style="font-family:sans-serif;font-size:10px;">

</text>
<rect x="1524.5" y="96.0" width="80.0" height="15.0" style="fill:orange; stroke:rgb(0,0,0);" rx="1"/>
<text x="1526" y="105" style="font-family:sans-serif;font-size:10px;">
compound_stmt
</text>
<rect x="1701.5" y="256.0" width="28.0" height="15.0" style="fill:orange; stroke:rgb(0,0,0);" rx="1"/>
<text x="1703" y="265" style="font-family:sans-serif;font-size:10px;">
pass
</text>
<rect x="1007.5" y="96.0" width="80.0" height="15.0" style="fill:orange; stroke:rgb(0,0,0);" rx="1"/>
<text x="1009" y="105" style="font-family:sans-serif;font-size:10px;">
compound_stmt
</text>
<rect x="349.5" y="256.0" width="91.0" height="15.0" style="fill:orange; stroke:rgb(0,0,0);" rx="1"/>
<text x="351" y="265" style="font-family:sans-serif;font-size:10px;">
named_parameter
</text>
<rect x="986.5" y="448.0" width="15.0" height="15.0" style="fill:orange; stroke:rgb(0,0,0);" rx="1"/>
<text x="988" y="457" style="font-family:sans-serif;font-size:10px;">
int
</text>
<rect x="1543.5" y="128.0" width="42.0" height="15.0" style="fill:orange; stroke:rgb(0,0,0);" rx="1"/>
<text x="1545" y="137" style="font-family:sans-serif;font-size:10px;">
funcdef
</text>
<rect x="374.5" y="160.0" width="30.0" height="15.0" style="fill:orange; stroke:rgb(0,0,0);" rx="1"/>
<text x="376" y="169" style="font-family:sans-serif;font-size:10px;">
name
</text>
<rect x="1420.5" y="192.0" width="14.0" height="15.0" style="fill:orange; stroke:rgb(0,0,0);" rx="1"/>
<text x="1422" y="201" style="font-family:sans-serif;font-size:10px;">
f1
</text>
<rect x="776.0" y="192.0" width="81.0" height="15.0" style="fill:orange; stroke:rgb(0,0,0);" rx="1"/>
<text x="778" y="201" style="font-family:sans-serif;font-size:10px;">
def_parameters
</text>
<rect x="1278.0" y="352.0" width="26.0" height="15.0" style="fill:orange; stroke:rgb(0,0,0);" rx="1"/>
<text x="1280" y="361" style="font-family:sans-serif;font-size:10px;">
expr
</text>
<rect x="1283.5" y="448.0" width="15.0" height="15.0" style="fill:orange; stroke:rgb(0,0,0);" rx="1"/>
<text x="1285" y="457" style="font-family:sans-serif;font-size:10px;">
int
</text>
<rect x="1688.5" y="224.0" width="54.0" height="15.0" style="fill:orange; stroke:rgb(0,0,0);" rx="1"/>
<text x="1690" y="233" style="font-family:sans-serif;font-size:10px;">
small_stmt
</text>
<rect x="942.0" y="288.0" width="10.0" height="15.0" style="fill:orange; stroke:rgb(0,0,0);" rx="1"/>
<text x="944" y="297" style="font-family:sans-serif;font-size:10px;">
z
</text>
<rect x="1113.0" y="256.0" width="91.0" height="15.0" style="fill:orange; stroke:rgb(0,0,0);" rx="1"/>
<text x="1115" y="265" style="font-family:sans-serif;font-size:10px;">
named_parameter
</text>
<rect x="475.375" y="160.0" width="66.0" height="15.0" style="fill:orange; stroke:rgb(0,0,0);" rx="1"/>
<text x="477" y="169" style="font-family:sans-serif;font-size:10px;">
typedargslist
</text>
<rect x="192.0" y="256.0" width="91.0" height="15.0" style="fill:orange; stroke:rgb(0,0,0);" rx="1"/>
<text x="194" y="265" style="font-family:sans-serif;font-size:10px;">
named_parameter
</text>
<rect x="1333.0" y="256.0" width="28.0" height="15.0" style="fill:orange; stroke:rgb(0,0,0);" rx="1"/>
<text x="1335" y="265" style="font-family:sans-serif;font-size:10px;">
pass
</text>
<rect x="965.0" y="288.0" width="58.0" height="15.0" style="fill:orange; stroke:rgb(0,0,0);" rx="1"/>
<text x="967" y="297" style="font-family:sans-serif;font-size:10px;">
logical_test
</text>
<rect x="635.7916666666667" y="160.0" width="7.0" height="15.0" style="fill:orange; stroke:rgb(0,0,0);" rx="1"/>
<text x="637" y="169" style="font-family:sans-serif;font-size:10px;">
:
</text>
<rect x="983.0" y="256.0" width="22.0" height="15.0" style="fill:orange; stroke:rgb(0,0,0);" rx="1"/>
<text x="985" y="265" style="font-family:sans-serif;font-size:10px;">
test
</text>
<rect x="403.5" y="192.0" width="81.0" height="15.0" style="fill:orange; stroke:rgb(0,0,0);" rx="1"/>
<text x="405" y="201" style="font-family:sans-serif;font-size:10px;">
def_parameters
</text>
<rect x="265.16666666666663" y="160.0" width="7.0" height="15.0" style="fill:orange; stroke:rgb(0,0,0);" rx="1"/>
<text x="267" y="169" style="font-family:sans-serif;font-size:10px;">
:
</text>
<rect x="162.25" y="128.0" width="42.0" height="15.0" style="fill:orange; stroke:rgb(0,0,0);" rx="1"/>
<text x="164" y="137" style="font-family:sans-serif;font-size:10px;">
funcdef
</text>
<rect x="820.0" y="256.0" width="91.0" height="15.0" style="fill:orange; stroke:rgb(0,0,0);" rx="1"/>
<text x="822" y="265" style="font-family:sans-serif;font-size:10px;">
named_parameter
</text>
<rect x="104.0" y="224.0" width="75.0" height="15.0" style="fill:orange; stroke:rgb(0,0,0);" rx="1"/>
<text x="106" y="233" style="font-family:sans-serif;font-size:10px;">
def_parameter
</text>
<rect x="1670.625" y="160.0" width="7.0" height="15.0" style="fill:orange; stroke:rgb(0,0,0);" rx="1"/>
<text x="1672" y="169" style="font-family:sans-serif;font-size:10px;">
:
</text>
<rect x="0.0" y="256.0" width="91.0" height="15.0" style="fill:orange; stroke:rgb(0,0,0);" rx="1"/>
<text x="2" y="265" style="font-family:sans-serif;font-size:10px;">
named_parameter
</text>
<rect x="669.5" y="192.0" width="60.0" height="15.0" style="fill:orange; stroke:rgb(0,0,0);" rx="1"/>
<text x="671" y="201" style="font-family:sans-serif;font-size:10px;">
simple_stmt
</text>
<rect x="893.875" y="32.0" width="36.0" height="15.0" style="fill:orange; stroke:rgb(0,0,0);" rx="1"/>
<text x="895" y="41" style="font-family:sans-serif;font-size:10px;">
&lt;EOF&gt;
</text>
<rect x="755.0" y="192.0" width="14.0" height="15.0" style="fill:orange; stroke:rgb(0,0,0);" rx="1"/>
<text x="757" y="201" style="font-family:sans-serif;font-size:10px;">
f1
</text>
<rect x="1441.5" y="192.0" width="81.0" height="15.0" style="fill:orange; stroke:rgb(0,0,0);" rx="1"/>
<text x="1443" y="201" style="font-family:sans-serif;font-size:10px;">
def_parameters
</text>
<rect x="455.5" y="224.0" width="75.0" height="15.0" style="fill:orange; stroke:rgb(0,0,0);" rx="1"/>
<text x="457" y="233" style="font-family:sans-serif;font-size:10px;">
def_parameter
</text>
<rect x="1590.5" y="224.0" width="91.0" height="15.0" style="fill:orange; stroke:rgb(0,0,0);" rx="1"/>
<text x="1592" y="233" style="font-family:sans-serif;font-size:10px;">
named_parameter
</text>
<rect x="1239.0" y="288.0" width="10.0" height="15.0" style="fill:orange; stroke:rgb(0,0,0);" rx="1"/>
<text x="1241" y="297" style="font-family:sans-serif;font-size:10px;">
c
</text>
<rect x="1023.0" y="224.0" width="75.0" height="15.0" style="fill:orange; stroke:rgb(0,0,0);" rx="1"/>
<text x="1025" y="233" style="font-family:sans-serif;font-size:10px;">
def_parameter
</text>
<rect x="108.5" y="160.0" width="66.0" height="15.0" style="fill:orange; stroke:rgb(0,0,0);" rx="1"/>
<text x="110" y="169" style="font-family:sans-serif;font-size:10px;">
typedargslist
</text>
<rect x="295.0" y="256.0" width="28.0" height="15.0" style="fill:orange; stroke:rgb(0,0,0);" rx="1"/>
<text x="297" y="265" style="font-family:sans-serif;font-size:10px;">
pass
</text>
<rect x="1473.1875" y="160.0" width="8.0" height="15.0" style="fill:orange; stroke:rgb(0,0,0);" rx="1"/>
<text x="1475" y="169" style="font-family:sans-serif;font-size:10px;">
(
</text>
<rect x="1265.75" y="192.0" width="7.0" height="15.0" style="fill:orange; stroke:rgb(0,0,0);" rx="1"/>
<text x="1267" y="201" style="font-family:sans-serif;font-size:10px;">
,
</text>
<rect x="200.0" y="224.0" width="75.0" height="15.0" style="fill:orange; stroke:rgb(0,0,0);" rx="1"/>
<text x="202" y="233" style="font-family:sans-serif;font-size:10px;">
def_parameter
</text>
<rect x="160.25" y="64.0" width="4.0" height="15.0" style="fill:orange; stroke:rgb(0,0,0);" rx="1"/>
<text x="162" y="73" style="font-family:sans-serif;font-size:10px;">

</text>
<rect x="186.0" y="224.0" width="7.0" height="15.0" style="fill:orange; stroke:rgb(0,0,0);" rx="1"/>
<text x="188" y="233" style="font-family:sans-serif;font-size:10px;">
,
</text>
<rect x="752.5" y="288.0" width="30.0" height="15.0" style="fill:orange; stroke:rgb(0,0,0);" rx="1"/>
<text x="754" y="297" style="font-family:sans-serif;font-size:10px;">
name
</text>
<rect x="447.5" y="256.0" width="91.0" height="15.0" style="fill:orange; stroke:rgb(0,0,0);" rx="1"/>
<text x="449" y="265" style="font-family:sans-serif;font-size:10px;">
named_parameter
</text>
<rect x="1229.0" y="256.0" width="30.0" height="15.0" style="fill:orange; stroke:rgb(0,0,0);" rx="1"/>
<text x="1231" y="265" style="font-family:sans-serif;font-size:10px;">
name
</text>
<rect x="1277.5" y="384.0" width="27.0" height="15.0" style="fill:orange; stroke:rgb(0,0,0);" rx="1"/>
<text x="1279" y="393" style="font-family:sans-serif;font-size:10px;">
atom
</text>
<rect x="980.5" y="384.0" width="27.0" height="15.0" style="fill:orange; stroke:rgb(0,0,0);" rx="1"/>
<text x="982" y="393" style="font-family:sans-serif;font-size:10px;">
atom
</text>
<rect x="1555.125" y="192.0" width="7.0" height="15.0" style="fill:orange; stroke:rgb(0,0,0);" rx="1"/>
<text x="1557" y="201" style="font-family:sans-serif;font-size:10px;">
,
</text>
<rect x="720.0" y="160.0" width="20.0" height="15.0" style="fill:orange; stroke:rgb(0,0,0);" rx="1"/>
<text x="722" y="169" style="font-family:sans-serif;font-size:10px;">
def
</text>
<rect x="1222.0" y="224.0" width="91.0" height="15.0" style="fill:orange; stroke:rgb(0,0,0);" rx="1"/>
<text x="1224" y="233" style="font-family:sans-serif;font-size:10px;">
named_parameter
</text>
<rect x="979.0" y="416.0" width="30.0" height="15.0" style="fill:orange; stroke:rgb(0,0,0);" rx="1"/>
<text x="981" y="425" style="font-family:sans-serif;font-size:10px;">
name
</text>
<rect x="297.0" y="192.0" width="60.0" height="15.0" style="fill:orange; stroke:rgb(0,0,0);" rx="1"/>
<text x="299" y="201" style="font-family:sans-serif;font-size:10px;">
simple_stmt
</text>
<rect x="556.5" y="224.0" width="91.0" height="15.0" style="fill:orange; stroke:rgb(0,0,0);" rx="1"/>
<text x="558" y="233" style="font-family:sans-serif;font-size:10px;">
named_parameter
</text>
<rect x="347.5" y="160.0" width="20.0" height="15.0" style="fill:orange; stroke:rgb(0,0,0);" rx="1"/>
<text x="349" y="169" style="font-family:sans-serif;font-size:10px;">
def
</text>
<rect x="171.25" y="64.0" width="24.0" height="15.0" style="fill:orange; stroke:rgb(0,0,0);" rx="1"/>
<text x="173" y="73" style="font-family:sans-serif;font-size:10px;">
stmt
</text>
<rect x="143.25" y="96.0" width="80.0" height="15.0" style="fill:orange; stroke:rgb(0,0,0);" rx="1"/>
<text x="145" y="105" style="font-family:sans-serif;font-size:10px;">
compound_stmt
</text>
<rect x="1575.5" y="224.0" width="8.0" height="15.0" style="fill:orange; stroke:rgb(0,0,0);" rx="1"/>
<text x="1577" y="233" style="font-family:sans-serif;font-size:10px;">
*
</text>
<rect x="514.875" y="192.0" width="7.0" height="15.0" style="fill:orange; stroke:rgb(0,0,0);" rx="1"/>
<text x="516" y="201" style="font-family:sans-serif;font-size:10px;">
,
</text>
<rect x="597.0" y="288.0" width="10.0" height="15.0" style="fill:orange; stroke:rgb(0,0,0);" rx="1"/>
<text x="599" y="297" style="font-family:sans-serif;font-size:10px;">
z
</text>
<rect x="587.0" y="256.0" width="30.0" height="15.0" style="fill:orange; stroke:rgb(0,0,0);" rx="1"/>
<text x="589" y="265" style="font-family:sans-serif;font-size:10px;">
name
</text>
<rect x="1381.0" y="224.0" width="4.0" height="15.0" style="fill:orange; stroke:rgb(0,0,0);" rx="1"/>
<text x="1383" y="233" style="font-family:sans-serif;font-size:10px;">

</text>
<rect x="925.0" y="224.0" width="91.0" height="15.0" style="fill:orange; stroke:rgb(0,0,0);" rx="1"/>
<text x="927" y="233" style="font-family:sans-serif;font-size:10px;">
named_parameter
</text>
<rect x="1478.5" y="224.0" width="7.0" height="15.0" style="fill:orange; stroke:rgb(0,0,0);" rx="1"/>
<text x="1480" y="233" style="font-family:sans-serif;font-size:10px;">
,
</text>
<rect x="1217.75" y="192.0" width="41.0" height="15.0" style="fill:orange; stroke:rgb(0,0,0);" rx="1"/>
<text x="1219" y="201" style="font-family:sans-serif;font-size:10px;">
kwargs
</text>
<rect x="584.5833333333334" y="160.0" width="8.0" height="15.0" style="fill:orange; stroke:rgb(0,0,0);" rx="1"/>
<text x="586" y="169" style="font-family:sans-serif;font-size:10px;">
)
</text>
<rect x="29.5" y="160.0" width="20.0" height="15.0" style="fill:orange; stroke:rgb(0,0,0);" rx="1"/>
<text x="31" y="169" style="font-family:sans-serif;font-size:10px;">
def
</text>
<rect x="1552.5" y="64.0" width="24.0" height="15.0" style="fill:orange; stroke:rgb(0,0,0);" rx="1"/>
<text x="1554" y="73" style="font-family:sans-serif;font-size:10px;">
stmt
</text>
<rect x="1526.0" y="320.0" width="10.0" height="15.0" style="fill:orange; stroke:rgb(0,0,0);" rx="1"/>
<text x="1528" y="329" style="font-family:sans-serif;font-size:10px;">
y
</text>
<rect x="686.0" y="160.0" width="27.0" height="15.0" style="fill:orange; stroke:rgb(0,0,0);" rx="1"/>
<text x="688" y="169" style="font-family:sans-serif;font-size:10px;">
suite
</text>
<rect x="850.5" y="288.0" width="30.0" height="15.0" style="fill:orange; stroke:rgb(0,0,0);" rx="1"/>
<text x="852" y="297" style="font-family:sans-serif;font-size:10px;">
name
</text>
<rect x="440.5" y="224.0" width="7.0" height="15.0" style="fill:orange; stroke:rgb(0,0,0);" rx="1"/>
<text x="442" y="233" style="font-family:sans-serif;font-size:10px;">
,
</text>
<rect x="222.5" y="288.0" width="30.0" height="15.0" style="fill:orange; stroke:rgb(0,0,0);" rx="1"/>
<text x="224" y="297" style="font-family:sans-serif;font-size:10px;">
name
</text>
<rect x="1009.875" y="160.0" width="66.0" height="15.0" style="fill:orange; stroke:rgb(0,0,0);" rx="1"/>
<text x="1011" y="169" style="font-family:sans-serif;font-size:10px;">
typedargslist
</text>
<rect x="860.5" y="320.0" width="10.0" height="15.0" style="fill:orange; stroke:rgb(0,0,0);" rx="1"/>
<text x="862" y="329" style="font-family:sans-serif;font-size:10px;">
y
</text>
<rect x="1485.5" y="256.0" width="91.0" height="15.0" style="fill:orange; stroke:rgb(0,0,0);" rx="1"/>
<text x="1487" y="265" style="font-family:sans-serif;font-size:10px;">
named_parameter
</text>
<rect x="1621.0" y="256.0" width="30.0" height="15.0" style="fill:orange; stroke:rgb(0,0,0);" rx="1"/>
<text x="1623" y="265" style="font-family:sans-serif;font-size:10px;">
name
</text>
<rect x="56.5" y="160.0" width="30.0" height="15.0" style="fill:orange; stroke:rgb(0,0,0);" rx="1"/>
<text x="58" y="169" style="font-family:sans-serif;font-size:10px;">
name
</text>
<rect x="40.5" y="320.0" width="10.0" height="15.0" style="fill:orange; stroke:rgb(0,0,0);" rx="1"/>
<text x="42" y="329" style="font-family:sans-serif;font-size:10px;">
x
</text>
<rect x="1045.5" y="288.0" width="30.0" height="15.0" style="fill:orange; stroke:rgb(0,0,0);" rx="1"/>
<text x="1047" y="297" style="font-family:sans-serif;font-size:10px;">
name
</text>
<rect x="1428.0" y="320.0" width="10.0" height="15.0" style="fill:orange; stroke:rgb(0,0,0);" rx="1"/>
<text x="1430" y="329" style="font-family:sans-serif;font-size:10px;">
x
</text>
<rect x="667.5" y="256.0" width="28.0" height="15.0" style="fill:orange; stroke:rgb(0,0,0);" rx="1"/>
<text x="669" y="265" style="font-family:sans-serif;font-size:10px;">
pass
</text>
<rect x="1511.875" y="160.0" width="66.0" height="15.0" style="fill:orange; stroke:rgb(0,0,0);" rx="1"/>
<text x="1513" y="169" style="font-family:sans-serif;font-size:10px;">
typedargslist
</text>
<rect x="93.5" y="160.0" width="8.0" height="15.0" style="fill:orange; stroke:rgb(0,0,0);" rx="1"/>
<text x="95" y="169" style="font-family:sans-serif;font-size:10px;">
(
</text>
<rect x="90.0" y="224.0" width="7.0" height="15.0" style="fill:orange; stroke:rgb(0,0,0);" rx="1"/>
<text x="92" y="233" style="font-family:sans-serif;font-size:10px;">
,
</text>
<rect x="839.875" y="32.0" width="47.0" height="15.0" style="fill:orange; stroke:rgb(0,0,0);" rx="1"/>
<text x="841" y="41" style="font-family:sans-serif;font-size:10px;">
file_input
</text>
<rect x="889.4375" y="160.0" width="8.0" height="15.0" style="fill:orange; stroke:rgb(0,0,0);" rx="1"/>
<text x="891" y="169" style="font-family:sans-serif;font-size:10px;">
(
</text>
<rect x="1257.625" y="160.0" width="7.0" height="15.0" style="fill:orange; stroke:rgb(0,0,0);" rx="1"/>
<text x="1259" y="169" style="font-family:sans-serif;font-size:10px;">
:
</text>
<rect x="1516.0" y="288.0" width="30.0" height="15.0" style="fill:orange; stroke:rgb(0,0,0);" rx="1"/>
<text x="1518" y="297" style="font-family:sans-serif;font-size:10px;">
name
</text>
<rect x="1008.625" y="192.0" width="7.0" height="15.0" style="fill:orange; stroke:rgb(0,0,0);" rx="1"/>
<text x="1010" y="201" style="font-family:sans-serif;font-size:10px;">
,
</text>
<rect x="516.5" y="64.0" width="24.0" height="15.0" style="fill:orange; stroke:rgb(0,0,0);" rx="1"/>
<text x="518" y="73" style="font-family:sans-serif;font-size:10px;">
stmt
</text>
<rect x="488.5" y="96.0" width="80.0" height="15.0" style="fill:orange; stroke:rgb(0,0,0);" rx="1"/>
<text x="490" y="105" style="font-family:sans-serif;font-size:10px;">
compound_stmt
</text>
<rect x="929.25" y="192.0" width="26.0" height="15.0" style="fill:orange; stroke:rgb(0,0,0);" rx="1"/>
<text x="931" y="201" style="font-family:sans-serif;font-size:10px;">
args
</text>
<rect x="282.0" y="224.0" width="54.0" height="15.0" style="fill:orange; stroke:rgb(0,0,0);" rx="1"/>
<text x="284" y="233" style="font-family:sans-serif;font-size:10px;">
small_stmt
</text>
<rect x="313.5" y="160.0" width="27.0" height="15.0" style="fill:orange; stroke:rgb(0,0,0);" rx="1"/>
<text x="315" y="169" style="font-family:sans-serif;font-size:10px;">
suite
</text>
<rect x="762.5" y="320.0" width="10.0" height="15.0" style="fill:orange; stroke:rgb(0,0,0);" rx="1"/>
<text x="764" y="329" style="font-family:sans-serif;font-size:10px;">
x
</text>
<rect x="1261.0" y="320.0" width="60.0" height="15.0" style="fill:orange; stroke:rgb(0,0,0);" rx="1"/>
<text x="1263" y="329" style="font-family:sans-serif;font-size:10px;">
comparison
</text>
<rect x="1395.5" y="224.0" width="75.0" height="15.0" style="fill:orange; stroke:rgb(0,0,0);" rx="1"/>
<text x="1397" y="233" style="font-family:sans-serif;font-size:10px;">
def_parameter
</text>
<rect x="964.0" y="320.0" width="60.0" height="15.0" style="fill:orange; stroke:rgb(0,0,0);" rx="1"/>
<text x="966" y="329" style="font-family:sans-serif;font-size:10px;">
comparison
</text>
<rect x="357.5" y="224.0" width="75.0" height="15.0" style="fill:orange; stroke:rgb(0,0,0);" rx="1"/>
<text x="359" y="233" style="font-family:sans-serif;font-size:10px;">
def_parameter
</text>
<rect x="1106.0" y="224.0" width="7.0" height="15.0" style="fill:orange; stroke:rgb(0,0,0);" rx="1"/>
<text x="1108" y="233" style="font-family:sans-serif;font-size:10px;">
,
</text>
<rect x="889.625" y="192.0" width="7.0" height="15.0" style="fill:orange; stroke:rgb(0,0,0);" rx="1"/>
<text x="891" y="201" style="font-family:sans-serif;font-size:10px;">
,
</text>
<rect x="1015.0" y="256.0" width="91.0" height="15.0" style="fill:orange; stroke:rgb(0,0,0);" rx="1"/>
<text x="1017" y="265" style="font-family:sans-serif;font-size:10px;">
named_parameter
</text>
<rect x="1153.5" y="320.0" width="10.0" height="15.0" style="fill:orange; stroke:rgb(0,0,0);" rx="1"/>
<text x="1155" y="329" style="font-family:sans-serif;font-size:10px;">
b
</text>
</svg>